<?xml version="1.0" encoding="UTF-8"?> <svg xmlns="http://www.w3.org/2000/svg" xmlns:xlink="http://www.w3.org/1999/xlink" id="body_1" viewBox="92 307 609.32 504.93"><g transform="matrix(1.3333 0 0 1.3333 0 0)"><g clip-path="url(#1)"><g clip-path="url(#2)"><path id="" transform="matrix(1 0 0 -1 0 841)" d="M255.2803 333.1134C 280.4713 308.8004 316.9123 297.0024 353.6573 304.8284C 403.55432 315.4564 438.1893 358.9014 439.79132 407.7474L439.79132 407.7474L436.5863 406.45142C 434.4233 359.5924 400.9753 318.1314 352.9993 307.9134C 317.81232 300.4184 282.9153 311.4604 258.4953 334.4134z" stroke="none" fill="#221E1F" fill-rule="nonzero"></path><path id="" transform="matrix(1 0 0 -1 0 841)" d="M448.1165 383.5975C 447.0445 378.7085 449.5125 375.8175 454.3095 374.7645L454.3095 374.7645L470.1405 371.2885C 474.9845 370.2255 478.4355 371.8175 479.50848 376.70752L479.50848 376.70752L481.1235 384.0615L481.1235 384.0615L449.7315 390.9515zM451.3125 382.9425L452.1495 386.7555L452.1495 386.7555L477.1705 381.2625L477.1705 381.2625L476.3445 377.4965C 475.7845 374.9395 473.9485 374.07352 471.0785 374.7035L471.0785 374.7035L454.9355 378.2455C 452.0645 378.8775 450.7595 380.43152 451.3125 382.9425" stroke="none" fill="#221E1F" fill-rule="nonzero"></path><path id="" transform="matrix(1 0 0 -1 0 841)" d="M443.9258 369.09L474.3228 358.656L474.3228 358.656L475.4858 362.042L475.4858 362.042L445.0878 372.477z" stroke="none" fill="#221E1F" fill-rule="nonzero"></path><path id="" transform="matrix(1 0 0 -1 0 841)" d="M439.3086 358.8234C 437.2136 354.3804 439.0816 350.9104 443.4846 348.8374C 451.6656 344.9834 456.8856 354.4484 463.4066 351.3784C 465.9816 350.1634 467.0466 348.4434 465.9516 346.1174C 464.8556 343.7924 462.8526 343.5194 460.2356 344.7534L460.2356 344.7534L459.28058 345.2024L459.28058 345.2024L457.8316 342.1294L457.8316 342.1294L458.6206 341.7574C 463.0236 339.6834 466.86758 340.4104 468.9396 344.8124C 470.9956 349.1714 469.1926 352.5594 464.7046 354.6724C 456.5256 358.52838 451.3236 349.1024 444.84558 352.1554C 442.2286 353.3874 441.2006 355.19238 442.2946 357.5164C 443.3906 359.84338 445.4356 360.1984 448.0516 358.9664L448.0516 358.9664L449.8796 358.1044L449.8796 358.1044L451.3076 361.13638L451.3076 361.13638L449.6466 361.92038C 445.2446 363.9934 441.4026 363.2664 439.3086 358.8234" stroke="none" fill="#221E1F" fill-rule="nonzero"></path><path id="" transform="matrix(1 0 0 -1 0 841)" d="M453.5254 319.2911L462.0724 332.1361L462.0724 332.1361L459.3584 333.9381L459.3584 333.9381L456.07538 329.0091L456.07538 329.0091L432.0344 345.00812L432.0344 345.00812L430.04938 342.02612L430.04938 342.02612L454.09338 326.0261L454.09338 326.0261L450.8114 321.0961z" stroke="none" fill="#221E1F" fill-rule="nonzero"></path><path id="" transform="matrix(1 0 0 -1 0 841)" d="M443.792 307.77338L448.615 313.0684L448.615 313.0684L424.85898 334.7074L424.85898 334.7074L422.447 332.0614L422.447 332.0614L432.593 322.81738L432.593 322.81738L430.89398 320.95038C 428.883 318.7444 426.893 318.26138 424.211 320.70538L424.211 320.70538L420.479 324.10538C 418.883 325.5564 418.147 325.9774 417.192 326.2924L417.192 326.2924L414.749 323.61038C 415.965 323.3104 416.981 322.44537 418.033 321.4884L418.033 321.4884L421.732 318.1194C 424.27698 315.80038 426.783 315.0074 429.406 316.5914C 428.197 313.96738 428.992 311.56738 431.60498 309.1864L431.60498 309.1864L433.539 307.42538C 437.068 304.2104 440.392 304.04037 443.792 307.77338M433.21 318.6544L435.00198 320.62238L435.00198 320.62238L443.792 312.6154L443.792 312.6154L441.442 310.0354C 439.65198 308.06738 437.819 308.30737 435.68198 310.25638L435.68198 310.25638L433.408 312.3274C 430.82898 314.67538 431.29498 316.55038 433.21 318.6544" stroke="none" fill="#221E1F" fill-rule="nonzero"></path><path id="" transform="matrix(1 0 0 -1 0 841)" d="M432.7959 296.8654L411.6849 321.0984L411.6849 321.0984L408.9839 318.7464L408.9839 318.7464L430.0969 294.51437z" stroke="none" fill="#221E1F" fill-rule="nonzero"></path><path id="" transform="matrix(1 0 0 -1 0 841)" d="M407.1954 288.3141L408.0524 287.0651C 410.7294 283.1681 413.7094 282.3171 417.8334 285.1491L417.8334 285.1491L423.7724 289.2311L423.7724 289.2311L405.5834 315.7181L405.5834 315.7181L399.4884 311.5341C 395.3644 308.7011 394.9674 305.1451 397.6954 301.1701L397.6954 301.1701L399.2314 298.9391C 401.2314 296.0241 403.61942 294.6561 406.68442 295.7051C 404.8734 293.4011 405.2714 291.1131 407.1954 288.3141M418.9754 289.8911L416.0624 287.8901C 413.9454 286.4351 412.37042 287.0241 410.75742 289.3701L410.75742 289.3701L409.6914 290.9211C 407.79642 293.6841 408.4874 295.2721 410.8344 296.8841L410.8344 296.8841L413.1034 298.4411zM402.2734 300.7511L400.6614 303.0971C 398.97342 305.5561 399.1754 307.3661 401.3344 308.8491L401.3344 308.8491L404.4744 311.0061L404.4744 311.0061L411.2584 301.1301L411.2584 301.1301L408.68442 299.36108C 406.1484 297.6211 404.3004 297.7981 402.2734 300.7511" stroke="none" fill="#221E1F" fill-rule="nonzero"></path><path id="" transform="matrix(1 0 0 -1 0 841)" d="M384.9404 299.7755C 387.30038 300.90552 389.0884 299.82852 390.3374 297.2195L390.3374 297.2195L400.9404 275.0635L400.9404 275.0635L404.1284 276.5895L404.1284 276.5895L393.60638 298.57852C 391.5044 302.9685 388.0694 304.9375 383.6374 302.8175C 379.1664 300.67853 378.5424 296.7655 380.6444 292.37653L380.6444 292.37653L391.1664 270.3855L391.1664 270.3855L394.1894 271.8345L394.1894 271.8345L383.5884 293.98853C 382.3384 296.5985 382.6214 298.6675 384.9404 299.7755" stroke="none" fill="#221E1F" fill-rule="nonzero"></path><path id="" transform="matrix(1 0 0 -1 0 841)" d="M369.3096 263.0294L384.0516 267.5614L384.0516 267.5614L383.0966 270.6774L383.0966 270.6774L377.4336 268.9364L377.4336 268.9364L368.94962 296.5384L368.94962 296.5384L365.5266 295.4864L365.5266 295.4864L374.0096 267.8844L374.0096 267.8844L368.3516 266.1454z" stroke="none" fill="#221E1F" fill-rule="nonzero"></path><path id="" transform="matrix(1 0 0 -1 0 841)" d="M358.999 260.9972L362.51498 261.6712L362.51498 261.6712L356.474 293.23218L356.474 293.23218L352.957 292.5592z" stroke="none" fill="#221E1F" fill-rule="nonzero"></path><path id="" transform="matrix(1 0 0 -1 0 841)" d="M341.4228 291.4518C 336.4788 291.0808 334.29178 287.6948 334.6568 282.8428L334.6568 282.8428L335.9018 266.2688C 336.2688 261.3708 338.93478 258.3928 343.87778 258.7658C 348.77878 259.1318 350.96478 262.47382 350.5968 267.3728L350.5968 267.3728L349.35178 283.9458C 348.9878 288.7988 346.32178 291.8208 341.4228 291.4518M343.6338 262.0148C 341.0238 261.8198 339.7028 263.4708 339.4878 266.3548L339.4878 266.3548L338.2128 283.2928C 337.99478 286.22382 339.0578 288.0058 341.6648 288.2018C 344.23077 288.3948 345.59378 286.7938 345.81378 283.8638L345.81378 283.8638L347.08478 266.9248C 347.3028 264.0408 346.19678 262.2068 343.6338 262.0148" stroke="none" fill="#221E1F" fill-rule="nonzero"></path><path id="" transform="matrix(1 0 0 -1 0 841)" d="M318.8359 291.549L315.1319 291.864L315.1319 291.864L312.40692 259.842L312.40692 259.842L315.5649 259.573L315.5649 259.573L317.53192 282.721L317.53192 282.721L322.9749 258.94302L322.9749 258.94302L327.5049 258.558L327.5049 258.558L330.2279 290.582L330.2279 290.582L327.0249 290.853L327.0249 290.853L324.8229 264.959z" stroke="none" fill="#221E1F" fill-rule="nonzero"></path><path id="" transform="matrix(1 0 0 -1 0 841)" d="M286.0298 265.6886C 290.74777 264.1596 294.09778 266.16058 295.68478 271.0516L295.68478 271.0516L300.8408 286.9486C 302.4268 291.8386 300.8888 295.4296 296.17178 296.9586C 291.45477 298.4896 288.10278 296.4866 286.51578 291.5956L286.51578 291.5956L285.1998 287.5326L285.1998 287.5326L289.74078 286.0596L289.74078 286.0596L291.1568 290.4276C 291.86478 292.6126 293.0828 293.0846 294.61078 292.5896C 296.1378 292.0936 296.84277 290.9976 296.13577 288.8126L296.13577 288.8126L290.7818 272.3036C 290.0738 270.1216 288.8448 269.6016 287.3148 270.0976C 285.78677 270.5936 285.0948 271.7346 285.8028 273.9186L285.8028 273.9186L286.86578 277.1946L286.86578 277.1946L282.32278 278.6676L282.32278 278.6676L281.35977 275.6986C 279.77478 270.8056 281.31378 267.2176 286.0298 265.6886" stroke="none" fill="#221E1F" fill-rule="nonzero"></path><path id="" transform="matrix(1 0 0 -1 0 841)" d="M264.2096 275.1237L271.0026 271.6697L271.0026 271.6697L285.5756 300.3177L285.5756 300.3177L278.4956 303.9177C 273.9926 306.2087 270.4526 305.0207 268.20462 300.5997L268.20462 300.5997L267.0176 298.2697C 265.4776 295.2407 265.3156 292.5917 267.2506 290.4237C 264.7666 290.5017 262.9096 289.0757 261.4106 286.1297L261.4106 286.1297L260.8886 285.1067C 258.6416 280.6877 259.5436 277.4987 264.2096 275.1237M271.3736 295.6927L272.64362 298.1897C 273.7266 300.3177 274.89862 300.5957 276.4136 299.8267L276.4136 299.8267L278.9926 298.5147L278.9926 298.5147L274.5166 289.7167L274.5166 289.7167L272.5096 290.7357C 270.4656 291.7777 270.0206 293.0327 271.3736 295.6927M265.6206 283.2677L266.43262 284.8637C 267.5986 287.1557 268.9966 287.3717 270.6746 286.5187L270.6746 286.5187L272.4346 285.6237L272.4346 285.6237L268.5826 278.0517L268.5826 278.0517L266.4126 279.1547C 264.8176 279.9677 264.5806 281.2207 265.6206 283.2677" stroke="none" fill="#221E1F" fill-rule="nonzero"></path><path id="" transform="matrix(1 0 0 -1 0 841)" d="M243.24721 288.07678L249.6932 283.35678L249.6932 283.35678L268.6762 309.2848L268.6762 309.2848L262.22922 314.00378C 258.15622 316.9868 254.50021 316.1908 251.4642 312.0418L251.4642 312.0418L241.86421 298.9308C 238.82721 294.7828 239.17421 291.0578 243.24721 288.07678M245.8032 295.7638L255.6752 309.24478C 257.03122 311.0968 258.2962 311.1938 259.5932 310.2438L259.5932 310.2438L261.8882 308.56378L261.8882 308.56378L248.3302 290.0438L248.3302 290.0438L246.03421 291.7248C 244.73721 292.6748 244.4472 293.9098 245.8032 295.7638" stroke="none" fill="#221E1F" fill-rule="nonzero"></path><path id="" transform="matrix(1 0 0 -1 0 841)" d="M250.4722 479.7408C 265.0662 496.9478 285.2342 509.6448 308.9592 514.6988C 341.28418 521.5828 373.36218 512.8178 397.2992 493.55283C 397.3012 493.5728 397.3012 493.5968 397.3042 493.61783C 397.1872 493.76782 397.0722 493.91782 396.95618 494.06882C 395.6712 495.72882 394.3452 497.4468 393.1282 499.33182C 392.4932 500.31583 392.0442 501.01782 391.7012 501.58282C 368.0682 517.4758 338.28918 524.1698 308.3022 517.78284C 282.8722 512.3668 261.4102 498.4248 246.2592 479.59183z" stroke="none" fill="#221E1F" fill-rule="nonzero"></path><path id="" transform="matrix(1 0 0 -1 0 841)" d="M258.9868 536.1046C 258.6988 536.55164 258.32178 536.9426 257.8838 537.2296C 257.44778 537.5186 256.99377 537.7346 256.4798 537.84564C 255.96379 537.9586 255.46379 537.95264 254.9448 537.8726C 254.42679 537.7946 253.87679 537.5676 253.42879 537.2796C 252.93678 536.96564 252.54678 536.5876 252.25778 536.15063C 251.97078 535.7126 251.75378 535.25964 251.64378 534.7446C 251.53079 534.2316 251.53679 533.72864 251.61578 533.21063C 251.6948 532.6926 251.92178 532.14264 252.20778 531.6936C 252.52478 531.2016 252.87279 530.8566 253.30978 530.5686C 253.74779 530.2816 254.20279 530.06464 254.71678 529.9536C 255.23079 529.8396 255.73279 529.84564 256.2498 529.9246C 256.7688 530.00464 257.24377 530.2476 257.7368 530.5636C 258.18478 530.8516 258.64978 531.2116 258.9368 531.6486C 259.2248 532.0866 259.4398 532.5406 259.55078 533.0546C 259.6638 533.56964 259.65778 534.0716 259.5788 534.5886C 259.49878 535.1066 259.3018 535.61163 258.9868 536.1046" stroke="none" fill="#221E1F" fill-rule="nonzero"></path><path id="" transform="matrix(1 0 0 -1 0 841)" d="M262.4805 520.2091C 262.1935 519.7711 261.9775 519.3181 261.8665 518.8041C 261.7535 518.2881 261.7595 517.7871 261.8395 517.2691C 261.9175 516.7511 262.1435 516.20013 262.4315 515.7531C 262.7475 515.2611 263.1235 514.8701 263.5625 514.5811C 263.9985 514.2931 264.4245 514.1231 264.9405 514.0111C 265.45248 513.8991 265.9555 513.9041 266.4725 513.98413C 266.9915 514.0631 267.4975 514.2611 267.9875 514.5771C 268.4365 514.86414 268.8725 515.2701 269.1605 515.7071C 269.4475 516.1451 269.6635 516.5991 269.7745 517.1121C 269.8865 517.6261 269.9105 518.0841 269.8305 518.6021C 269.7515 519.1201 269.5535 519.6261 269.2385 520.1171C 268.9515 520.5651 268.5455 521.0011 268.1075 521.2891C 267.6705 521.5781 267.2175 521.7921 266.7015 521.9051C 266.1875 522.0171 265.6865 522.0111 265.1675 521.9321C 264.6505 521.8531 264.1015 521.6261 263.6515 521.33813C 263.1605 521.0221 262.7695 520.6461 262.4805 520.2091" stroke="none" fill="#221E1F" fill-rule="nonzero"></path><path id="" transform="matrix(1 0 0 -1 0 841)" d="M275.1963 527.9196C 274.6743 527.65564 274.24728 527.3206 273.91528 526.91364C 273.5843 526.5086 273.32428 526.0786 273.16028 525.5796C 272.99628 525.0796 272.9503 524.5786 272.9763 524.0556C 273.00128 523.5326 273.1723 522.96265 273.4113 522.48663C 273.6753 521.9646 274.01028 521.53864 274.41528 521.2066C 274.8223 520.87463 275.2273 520.66364 275.7273 520.4986C 276.2283 520.3336 276.7283 520.2896 277.25128 520.31464C 277.7743 520.34064 278.2973 520.4846 278.8183 520.74963C 279.29327 520.9896 279.7693 521.3496 280.0993 521.75464C 280.4303 522.1596 280.69128 522.5896 280.8563 523.0896C 281.0213 523.5896 281.0903 524.0416 281.0643 524.5656C 281.0373 525.08765 280.8923 525.61163 280.6283 526.1336C 280.38928 526.60864 280.0293 527.0836 279.6233 527.4146C 279.2173 527.7456 278.78928 528.0066 278.2883 528.1696C 277.7883 528.33563 277.2883 528.3786 276.7653 528.3546C 276.2413 528.32764 275.6723 528.1586 275.1963 527.9196" stroke="none" fill="#221E1F" fill-rule="nonzero"></path><path id="" transform="matrix(1 0 0 -1 0 841)" d="M267.1865 537.4025C 267.6865 537.23755 268.1865 537.19354 268.7085 537.2185C 269.2335 537.2445 269.7315 537.43555 270.25348 537.70154C 270.7285 537.9415 271.22748 538.2515 271.5585 538.6585C 271.8905 539.0645 272.1495 539.4935 272.31448 539.9935C 272.4785 540.4935 272.5235 540.9935 272.4985 541.51654C 272.4715 542.0415 272.3265 542.5625 272.0635 543.0855C 271.8235 543.56055 271.4885 543.98755 271.0825 544.31854C 270.67648 544.6505 270.2485 544.90955 269.7475 545.0745C 269.2475 545.23755 268.7475 545.2835 268.22348 545.2575C 267.7015 545.23254 267.1305 545.06354 266.6565 544.82355C 266.1325 544.56055 265.70648 544.22455 265.3755 543.81854C 265.0435 543.4135 264.78348 542.9835 264.6185 542.4835C 264.4555 541.9835 264.4105 541.48254 264.43448 540.9605C 264.4615 540.43555 264.6295 539.86554 264.87048 539.39154C 265.1355 538.8685 265.4445 538.4895 265.8515 538.1585C 266.2565 537.82654 266.6855 537.5675 267.1865 537.4025" stroke="none" fill="#221E1F" fill-rule="nonzero"></path><path id="" transform="matrix(1 0 0 -1 0 841)" d="M290.4692 533.2203C 289.98822 533.4353 289.49622 533.5323 288.9722 533.5603C 288.44922 533.58826 287.8652 533.47925 287.36722 533.28925C 286.8212 533.08026 286.36322 532.7903 285.9902 532.42126C 285.6182 532.0513 285.31522 531.65027 285.1012 531.16925C 284.8862 530.6883 284.7912 530.1963 284.7632 529.6733C 284.7352 529.15027 284.8432 528.56525 285.0342 528.0683C 285.2432 527.5223 285.5322 527.0633 285.90222 526.6913C 286.2712 526.3193 286.65222 526.06525 287.1352 525.8523C 287.6152 525.63727 288.1062 525.53925 288.6312 525.5133C 289.1532 525.48425 289.6892 525.57526 290.2352 525.7843C 290.7322 525.9743 291.2402 526.28125 291.6122 526.6523C 291.98422 527.0213 292.2862 527.4223 292.5022 527.90326C 292.71622 528.3843 292.8302 528.8263 292.8602 529.3503C 292.8862 529.8733 292.7962 530.4073 292.5882 530.9543C 292.3982 531.4523 292.09122 531.96027 291.7192 532.3323C 291.35022 532.7043 290.9502 533.00726 290.4692 533.2203" stroke="none" fill="#221E1F" fill-rule="nonzero"></path><path id="" transform="matrix(1 0 0 -1 0 841)" d="M284.96 550.025C 284.589 550.39703 284.19098 550.69904 283.70898 550.914C 283.229 551.129 282.73398 551.22504 282.212 551.254C 281.689 551.28204 281.104 551.171 280.606 550.981C 280.061 550.773 279.602 550.48303 279.231 550.11304C 278.858 549.744 278.555 549.343 278.341 548.862C 278.12698 548.382 278.031 547.88904 278.00098 547.366C 277.974 546.844 278.08398 546.258 278.27298 545.76105C 278.482 545.21405 278.753 544.80505 279.124 544.434C 279.492 544.062 279.893 543.76 280.373 543.544C 280.854 543.33105 281.347 543.23303 281.869 543.20605C 282.393 543.17804 282.909 543.317 283.456 543.52704C 283.95398 543.71704 284.47998 543.97504 284.852 544.34503C 285.223 544.716 285.525 545.114 285.74 545.59503C 285.956 546.07605 286.052 546.56805 286.08 547.093C 286.108 547.61505 286.018 548.15 285.80798 548.698C 285.61798 549.195 285.33 549.65405 284.96 550.025" stroke="none" fill="#221E1F" fill-rule="nonzero"></path><path id="" transform="matrix(1 0 0 -1 0 841)" d="M298.5566 536.653C 298.1476 536.323 297.8066 535.955 297.5436 535.499C 297.2796 535.044 297.1326 534.564 297.0506 534.046C 296.9706 533.528 297.01962 532.935 297.15762 532.422C 297.30862 531.857 297.5486 531.37 297.8796 530.963C 298.20963 530.555 298.56262 530.266 299.01862 530.002C 299.4746 529.737 299.95462 529.59204 300.4726 529.51C 300.9906 529.429 301.53162 529.465 302.09662 529.616C 302.6106 529.754 303.1496 530.00903 303.5556 530.339C 303.9616 530.667 304.3046 531.036 304.5676 531.492C 304.82962 531.948 304.9906 532.377 305.0736 532.89404C 305.1546 533.412 305.11862 533.953 304.96762 534.51904C 304.8276 535.031 304.57462 535.57 304.2446 535.977C 303.91562 536.38403 303.5476 536.726 303.09262 536.98804C 302.6346 537.253 302.1556 537.4 301.6376 537.481C 301.1196 537.56104 300.5286 537.513 300.0136 537.375C 299.4486 537.222 298.96262 536.98303 298.5566 536.653" stroke="none" fill="#221E1F" fill-rule="nonzero"></path><path id="" transform="matrix(1 0 0 -1 0 841)" d="M299.334 554.2677C 299.00403 554.6747 298.63602 555.0177 298.18002 555.2807C 297.725 555.5437 297.24503 555.6897 296.72702 555.7707C 296.209 555.8527 295.617 555.8037 295.104 555.6657C 294.53802 555.5137 294.05103 555.2737 293.644 554.9437C 293.237 554.6147 292.89603 554.2467 292.631 553.7897C 292.36902 553.3337 292.22302 552.8537 292.14102 552.3367C 292.05902 551.8197 292.108 551.2257 292.246 550.7127C 292.398 550.1467 292.625 549.7127 292.95502 549.3057C 293.28403 548.8977 293.651 548.5577 294.108 548.2917C 294.56403 548.0297 295.04303 547.8827 295.561 547.8017C 296.079 547.7207 296.608 547.8067 297.17203 547.9577C 297.686 548.0967 298.23703 548.2987 298.64603 548.6307C 299.052 548.9577 299.39502 549.3267 299.657 549.7827C 299.92 550.2387 300.065 550.7197 300.147 551.2357C 300.229 551.7537 300.194 552.2957 300.04303 552.8607C 299.90503 553.3737 299.664 553.8607 299.334 554.2677" stroke="none" fill="#221E1F" fill-rule="nonzero"></path><path id="" transform="matrix(1 0 0 -1 0 841)" d="M313.0244 540.1505C 312.4464 540.0575 311.93842 539.8685 311.50043 539.5805C 311.06042 539.2945 310.6834 538.9635 310.37543 538.5365C 310.0664 538.1095 309.8724 537.6475 309.73743 537.1405C 309.6044 536.6345 309.5924 536.0395 309.67642 535.5145C 309.77042 534.9365 309.96042 534.4275 310.2464 533.9885C 310.53442 533.55054 310.8564 533.2255 311.28342 532.91754C 311.7094 532.6085 312.17242 532.4145 312.6794 532.2805C 313.18542 532.1475 313.72742 532.1275 314.30542 532.2195C 314.8304 532.30554 315.39243 532.50354 315.83142 532.7895C 316.27042 533.0755 316.64542 533.4065 316.9554 533.8335C 317.26343 534.2605 317.4664 534.67053 317.59943 535.1775C 317.73343 535.68353 317.75342 536.2265 317.6624 536.8045C 317.57642 537.3295 317.37842 537.8905 317.09042 538.3295C 316.8044 538.7675 316.47342 539.1465 316.0484 539.4535C 315.61942 539.7625 315.1574 539.95654 314.65042 540.0905C 314.1434 540.2245 313.5484 540.2345 313.0244 540.1505" stroke="none" fill="#221E1F" fill-rule="nonzero"></path><path id="" transform="matrix(1 0 0 -1 0 841)" d="M314.0684 557.026C 313.78238 557.465 313.4534 557.843 313.0254 558.151C 312.5984 558.46 312.1374 558.654 311.6294 558.787C 311.1244 558.921 310.52838 558.934 310.0034 558.849C 309.42438 558.755 308.91638 558.565 308.4774 558.28C 308.0404 557.993 307.6604 557.662 307.3534 557.235C 307.04538 556.808 306.8504 556.344 306.7164 555.838C 306.5824 555.331 306.57138 554.737 306.6564 554.213C 306.7494 553.634 306.92938 553.178 307.21738 552.739C 307.5034 552.3 307.8334 551.923 308.26138 551.615C 308.6884 551.306 309.1514 551.111 309.6584 550.978C 310.1644 550.844 310.6994 550.877 311.2754 550.969C 311.80038 551.056 312.3704 551.201 312.80838 551.487C 313.24838 551.773 313.6264 552.105 313.93338 552.532C 314.2424 552.959 314.4364 553.421 314.57138 553.928C 314.70438 554.434 314.7234 554.977 314.6304 555.554C 314.54538 556.08 314.35638 556.588 314.0684 557.026" stroke="none" fill="#221E1F" fill-rule="nonzero"></path><path id="" transform="matrix(1 0 0 -1 0 841)" d="M328.0654 559.5011C 327.6704 559.8511 327.2294 560.0921 326.7404 560.2761C 326.2514 560.4611 325.6604 560.5331 325.1274 560.5011C 324.5444 560.4661 324.0184 560.3301 323.5544 560.0901C 323.0884 559.8481 322.6774 559.5581 322.3284 559.1641C 321.9794 558.7711 321.7394 558.3301 321.5544 557.8401C 321.3694 557.3491 321.2974 556.7591 321.3294 556.2281C 321.3634 555.6431 321.4974 555.1711 321.7394 554.7071C 321.9774 554.2401 322.2694 553.8321 322.6624 553.4801C 323.0554 553.1321 323.4974 552.8911 323.9884 552.7071C 324.4774 552.5221 325.0124 552.5011 325.5954 552.5341C 326.1284 552.5651 326.7094 552.6521 327.1744 552.8941C 327.6404 553.1331 328.0464 553.4241 328.3994 553.8181C 328.7494 554.2121 328.9894 554.6521 329.1744 555.1431C 329.35638 555.6341 329.4324 556.1701 329.3994 556.7551C 329.3674 557.2871 329.2294 557.8101 328.9894 558.2761C 328.7494 558.7421 328.4604 559.1511 328.0654 559.5011" stroke="none" fill="#221E1F" fill-rule="nonzero"></path><path id="" transform="matrix(1 0 0 -1 0 841)" d="M327.8516 541.3688C 327.3616 541.5528 326.7696 541.62476 326.2396 541.59375C 325.65558 541.5588 325.1296 541.4228 324.6636 541.18176C 324.2006 540.9408 323.78958 540.65076 323.4396 540.2568C 323.0896 539.8638 322.8476 539.4228 322.66458 538.93176C 322.4816 538.44275 322.4086 537.8498 322.4396 537.3208C 322.4736 536.7358 322.61258 536.21075 322.8526 535.7458C 323.09158 535.2798 323.38058 534.9248 323.77258 534.5738C 324.1676 534.22375 324.6076 533.9848 325.0986 533.79877C 325.5896 533.61475 326.12558 533.53876 326.7086 533.5738C 327.2416 533.6058 327.8206 533.7458 328.2866 533.98676C 328.75058 534.22577 329.1586 534.51575 329.5106 534.91077C 329.8606 535.3058 330.1026 535.69275 330.2876 536.1828C 330.4726 536.67377 330.5466 537.2098 330.5116 537.7948C 330.4816 538.32477 330.3406 538.90375 330.1006 539.3688C 329.8606 539.8348 329.5686 540.2438 329.1746 540.59375C 328.7826 540.9438 328.3406 541.1838 327.8516 541.3688" stroke="none" fill="#221E1F" fill-rule="nonzero"></path><path id="" transform="matrix(1 0 0 -1 0 841)" d="M338.4199 552.9933C 338.8889 552.76227 339.41788 552.68427 340.0009 552.6603C 340.5339 552.6383 341.12088 552.6673 341.6089 552.8583C 342.0969 553.0513 342.5329 553.2983 342.9199 553.6543C 343.3079 554.01227 343.59088 554.4253 343.82288 554.8943C 344.0569 555.3653 344.18588 555.8913 344.2099 556.4753C 344.2319 557.0083 344.1499 557.5443 343.9589 558.0313C 343.7649 558.5173 343.5149 558.9543 343.1609 559.34326C 342.8049 559.7303 342.3909 560.0143 341.9209 560.2473C 341.4509 560.4803 340.8689 560.61127 340.3399 560.6333C 339.7569 560.65826 339.21988 560.57526 338.7319 560.38226C 338.2449 560.1903 337.8089 559.94226 337.4199 559.5843C 337.0319 559.2283 336.7479 558.8153 336.5139 558.3463C 336.2819 557.8763 336.15088 557.2953 336.1289 556.7643C 336.1049 556.1803 336.1909 555.6983 336.3829 555.21027C 336.57388 554.7223 336.8209 554.2853 337.1799 553.8973C 337.5359 553.5103 337.9499 553.22626 338.4199 552.9933" stroke="none" fill="#221E1F" fill-rule="nonzero"></path><path id="" transform="matrix(1 0 0 -1 0 841)" d="M335.3291 537.8414C 335.3051 537.2574 335.3881 536.7214 335.58112 536.23236C 335.7721 535.74536 336.0231 535.3614 336.3781 534.97437C 336.7361 534.58636 337.1491 534.30237 337.6191 534.0694C 338.0891 533.83734 338.6161 533.7084 339.2001 533.68335C 339.7311 533.6614 340.3191 533.7424 340.8091 533.93536C 341.2951 534.1274 341.7311 534.37634 342.1191 534.7314C 342.5061 535.0884 342.7891 535.44836 343.0211 535.9184C 343.2551 536.3874 343.3841 536.91437 343.4091 537.4994C 343.4311 538.0304 343.3491 538.62036 343.1571 539.1084C 342.9661 539.5954 342.7181 540.0304 342.3591 540.4194C 342.0031 540.8074 341.5891 541.0914 341.1211 541.32434C 340.6511 541.55536 340.0721 541.68835 339.53812 541.71136C 338.9551 541.73535 338.4181 541.65137 337.9311 541.4574C 337.4431 541.26636 337.0091 541.0184 336.6211 540.6614C 336.2301 540.3064 335.9491 539.89136 335.7151 539.42236C 335.48212 538.9524 335.3511 538.3724 335.3291 537.8414" stroke="none" fill="#221E1F" fill-rule="nonzero"></path><path id="" transform="matrix(1 0 0 -1 0 841)" d="M348.751 538.5997C 348.473 538.15466 348.285 537.5907 348.212 537.0627C 348.13 536.48364 348.161 535.9427 348.306 535.43866C 348.44702 534.9347 348.659 534.5287 348.976 534.1067C 349.292 533.68665 349.67502 533.3647 350.12 533.0857C 350.566 532.80865 351.078 532.62866 351.657 532.5467C 352.183 532.47266 352.776 532.49567 353.28 532.63965C 353.785 532.78265 354.24402 532.9867 354.663 533.3027C 355.084 533.6197 355.39902 533.95166 355.678 534.3957C 355.957 534.83966 356.138 535.3517 356.217 535.93066C 356.293 536.4587 356.269 537.0527 356.127 537.55664C 355.98102 538.0597 355.779 538.5177 355.463 538.9397C 355.144 539.3597 354.76102 539.6827 354.315 539.9617C 353.872 540.2397 353.31 540.4267 352.781 540.5007C 352.2 540.58264 351.659 540.5527 351.156 540.4087C 350.652 540.26465 350.193 540.0597 349.772 539.7447C 349.35202 539.4277 349.02902 539.04364 348.751 538.5997" stroke="none" fill="#221E1F" fill-rule="nonzero"></path><path id="" transform="matrix(1 0 0 -1 0 841)" d="M352.7725 551.8395C 353.21548 551.56146 353.73648 551.43445 354.3155 551.3515C 354.84048 551.2785 355.4295 551.2485 355.9325 551.3935C 356.43848 551.5365 356.89648 551.7405 357.3175 552.05646C 357.73648 552.3725 358.0615 552.7575 358.3365 553.20245C 358.61548 553.6455 358.7955 554.1575 358.8775 554.73645C 358.95248 555.26447 358.9205 555.8055 358.7785 556.30945C 358.63348 556.8135 358.43048 557.27246 358.1145 557.6935C 357.79648 558.11346 357.4145 558.4375 356.96948 558.71545C 356.52548 558.9925 355.96048 559.1805 355.4335 559.25446C 354.85248 559.3365 354.3115 559.3055 353.8075 559.1615C 353.3045 559.0195 352.8455 558.81445 352.4255 558.4985C 352.0045 558.18146 351.68048 557.79645 351.4025 557.35345C 351.12448 556.90845 350.9375 556.3445 350.8645 555.81647C 350.7815 555.2375 350.8195 554.7475 350.9615 554.2445C 351.1065 553.7405 351.30948 553.2825 351.6265 552.8605C 351.9445 552.44147 352.32748 552.11847 352.7725 551.8395" stroke="none" fill="#221E1F" fill-rule="nonzero"></path><path id="" transform="matrix(1 0 0 -1 0 841)" d="M372.8828 554.5206C 372.61182 554.9716 372.2618 555.33264 371.8478 555.6546C 371.4338 555.9746 370.8908 556.2196 370.3738 556.3466C 369.80682 556.48663 369.2658 556.51166 368.7478 556.42065C 368.2318 556.32764 367.7568 556.17065 367.3048 555.8986C 366.8558 555.6276 366.49182 555.27765 366.1718 554.86365C 365.8508 554.4506 365.60883 553.9086 365.4798 553.3916C 365.3388 552.8236 365.3268 552.33264 365.41882 551.81665C 365.5108 551.30164 365.6658 550.82465 365.9378 550.37366C 366.21182 549.9226 366.5618 549.56165 366.9758 549.2406C 367.38782 548.9196 367.8938 548.7396 368.46082 548.5996C 368.9778 548.47266 369.55682 548.3836 370.0728 548.4746C 370.5898 548.5656 371.0668 548.72266 371.5168 548.9956C 371.9678 549.26764 372.32883 549.61664 372.6498 550.0286C 372.9728 550.4426 373.2018 550.93463 373.34183 551.5036C 373.4718 552.0206 373.4928 552.56165 373.4028 553.07666C 373.3118 553.5936 373.15482 554.0706 372.8828 554.5206" stroke="none" fill="#221E1F" fill-rule="nonzero"></path><path id="" transform="matrix(1 0 0 -1 0 841)" d="M364.2031 538.0328C 363.68808 537.9418 363.2121 537.78577 362.7601 537.51276C 362.3101 537.2408 361.9501 536.8918 361.6271 536.4778C 361.3071 536.0628 361.06308 535.5218 360.9331 535.0038C 360.79608 534.4358 360.7691 533.89575 360.8621 533.3788C 360.9541 532.8638 361.1231 532.43677 361.39508 531.98676C 361.66708 531.53577 362.01608 531.17676 362.4311 530.8548C 362.8431 530.5318 363.33508 530.3008 363.9021 530.16077C 364.4201 530.03375 365.0141 529.9958 365.5281 530.0888C 366.0451 530.17975 366.5211 530.33575 366.9741 530.60675C 367.4241 530.87976 367.77008 531.1788 368.0911 531.5928C 368.4141 532.0058 368.64508 532.49677 368.7861 533.06476C 368.9131 533.58075 368.95108 534.17377 368.8571 534.68976C 368.7651 535.2068 368.6091 535.6838 368.33908 536.13477C 368.0671 536.5848 367.7181 536.9468 367.3041 537.2668C 366.8891 537.5888 366.34808 537.83276 365.8311 537.9588C 365.2611 538.0998 364.7201 538.1238 364.2031 538.0328" stroke="none" fill="#221E1F" fill-rule="nonzero"></path><path id="" transform="matrix(1 0 0 -1 0 841)" d="M373.5342 528.6119C 373.7562 528.1369 374.0682 527.7409 374.4462 527.3799C 374.8252 527.01587 375.2882 526.7369 375.84122 526.53986C 376.34222 526.35986 376.92822 526.26086 377.4512 526.29987C 377.9722 526.3399 378.4642 526.4449 378.94022 526.66986C 379.41522 526.89386 379.7912 527.1549 380.1542 527.5329C 380.51422 527.9129 380.79822 528.3769 380.9942 528.9269C 381.17422 529.42786 381.27222 530.0149 381.23422 530.53687C 381.1942 531.06085 381.0892 531.54987 380.8622 532.02686C 380.63922 532.5039 380.32822 532.8979 379.94922 533.26086C 379.5712 533.6219 379.0562 533.91986 378.5552 534.09985C 378.00623 534.29785 377.4692 534.37585 376.94522 534.33887C 376.4222 534.29987 375.9312 534.19385 375.4552 533.9689C 374.9812 533.7449 374.58722 533.4339 374.2232 533.05585C 373.8612 532.6759 373.5642 532.16187 373.38522 531.66187C 373.18622 531.10986 373.1062 530.57385 373.1452 530.0519C 373.1832 529.5289 373.3062 529.0879 373.5342 528.6119" stroke="none" fill="#221E1F" fill-rule="nonzero"></path><path id="" transform="matrix(1 0 0 -1 0 841)" d="M482.6328 428.4415C 482.3678 428.8945 482.06082 429.2895 481.65182 429.62048C 481.2388 429.9515 480.7868 430.1705 480.28983 430.3305C 479.7918 430.4925 479.1968 430.5355 478.6698 430.4785C 478.08582 430.4165 477.62082 430.2605 477.16882 429.9985C 476.7138 429.7345 476.3208 429.4255 475.98782 429.0155C 475.6588 428.6055 475.44083 428.1535 475.2788 427.6535C 475.11682 427.1565 475.12183 426.6215 475.1848 426.0395C 475.2398 425.5105 475.3558 424.9335 475.6178 424.4795C 475.8818 424.0275 476.19083 423.6325 476.6018 423.30148C 477.0108 422.9715 477.4628 422.7515 477.96082 422.5915C 478.45782 422.4305 478.9978 422.3805 479.5798 422.4425C 480.1108 422.4995 480.6288 422.6625 481.0838 422.9235C 481.53583 423.1885 481.9298 423.4965 482.2618 423.9075C 482.59082 424.3165 482.8118 424.7695 482.9718 425.2685C 483.1328 425.7665 483.17682 426.3585 483.1178 426.8875C 483.05682 427.4705 482.8938 427.9865 482.6328 428.4415" stroke="none" fill="#221E1F" fill-rule="nonzero"></path><path id="" transform="matrix(1 0 0 -1 0 841)" d="M459.5117 407.9122C 459.99667 407.7162 460.53168 407.6282 461.1157 407.6472C 461.6497 407.6662 462.23068 407.7912 462.69968 408.0202C 463.1727 408.2502 463.58868 408.5302 463.9487 408.9162C 464.3087 409.3002 464.5597 409.7342 464.75568 410.2202C 464.9517 410.7052 465.0387 411.2942 465.01868 411.8262C 465.0007 412.4112 464.8757 412.9392 464.6467 413.4092C 464.4177 413.8822 464.1367 414.2982 463.7537 414.6562C 463.36768 415.0172 462.9347 415.2692 462.4467 415.4652C 461.96368 415.6612 461.37268 415.7482 460.8407 415.7302C 460.2577 415.7102 459.72968 415.5862 459.25668 415.3562C 458.78568 415.1262 458.42468 414.8482 458.0637 414.4642C 457.7027 414.0802 457.45068 413.6452 457.25568 413.1592C 457.0597 412.6732 456.9727 412.1382 456.9907 411.5542C 457.0087 411.0222 457.13467 410.44022 457.3647 409.9692C 457.5937 409.4972 457.8747 409.0812 458.2577 408.7222C 458.64368 408.3622 459.0247 408.1092 459.5117 407.9122" stroke="none" fill="#221E1F" fill-rule="nonzero"></path><path id="" transform="matrix(1 0 0 -1 0 841)" d="M483.9492 412.4698C 483.9292 413.0538 483.8042 413.58078 483.5752 414.0538C 483.34518 414.5258 483.0652 414.9408 482.6822 415.29977C 482.29718 415.6608 481.8632 415.9108 481.37817 416.1088C 480.89218 416.30478 480.3022 416.39078 479.7692 416.3728C 479.1862 416.35278 478.7122 416.2298 478.2392 416.0018C 477.76718 415.7728 477.3502 415.49078 476.9922 415.1078C 476.6322 414.72278 476.3802 414.28677 476.18417 413.8018C 475.9882 413.31677 475.9532 412.78278 475.9722 412.1988C 475.99118 411.6658 476.0632 411.0838 476.29318 410.6118C 476.5222 410.14078 476.8032 409.7238 477.1862 409.36578C 477.57217 409.00677 478.0062 408.75278 478.4942 408.5578C 478.9762 408.3618 479.51318 408.2728 480.09818 408.2928C 480.62918 408.3108 481.15918 408.43478 481.62918 408.6638C 482.1002 408.8928 482.51718 409.17178 482.8762 409.5578C 483.23718 409.94278 483.4882 410.3768 483.68417 410.8638C 483.8812 411.3488 483.9682 411.93777 483.9492 412.4698" stroke="none" fill="#221E1F" fill-rule="nonzero"></path><path id="" transform="matrix(1 0 0 -1 0 841)" d="M456.4346 399.0538C 456.3846 398.5258 456.4366 397.9318 456.6036 397.4358C 456.7706 396.9388 456.9956 396.4908 457.3306 396.08582C 457.6676 395.6788 458.0126 395.3808 458.4696 395.1228C 458.9276 394.8668 459.4466 394.7118 460.0306 394.6578C 460.5606 394.6068 461.1526 394.6588 461.6496 394.8258C 462.1456 394.9928 462.5936 395.2188 462.9986 395.5548C 463.4046 395.8908 463.7086 396.2888 463.9656 396.7458C 464.2216 397.2038 464.3836 397.7778 464.4336 398.3068C 464.4866 398.8898 464.4306 399.4288 464.2636 399.9248C 464.0966 400.4218 463.8696 400.8698 463.5356 401.2758C 463.19962 401.68082 462.8006 401.98682 462.3416 402.2418C 461.8846 402.4978 461.3126 402.6578 460.7836 402.7078C 460.19962 402.76282 459.6606 402.70682 459.1636 402.5388C 458.6666 402.3718 458.2736 402.1418 457.8666 401.80582C 457.4606 401.4698 457.1576 401.0708 456.9016 400.6138C 456.64362 400.1578 456.4906 399.6368 456.4346 399.0538" stroke="none" fill="#221E1F" fill-rule="nonzero"></path><path id="" transform="matrix(1 0 0 -1 0 841)" d="M481.1992 400.4767C 480.7422 400.7347 480.1702 400.8947 479.6402 400.9447C 479.05618 400.99872 478.5712 400.9367 478.0752 400.7697C 477.5782 400.60272 477.1312 400.37772 476.7222 400.0407C 476.31818 399.70572 476.01218 399.3067 475.7592 398.8507C 475.5012 398.3927 475.3982 397.86673 475.34518 397.2857C 475.2962 396.75473 475.2942 396.16672 475.46017 395.6697C 475.62817 395.1747 475.85217 394.7257 476.1882 394.32172C 476.52518 393.9157 476.9242 393.61072 477.3812 393.3547C 477.83618 393.0967 478.35718 392.94272 478.9382 392.88773C 479.47018 392.8377 480.0102 392.8937 480.5072 393.0617C 481.00317 393.22873 481.4502 393.4547 481.8562 393.7907C 482.2612 394.1257 482.5662 394.52472 482.82318 394.98273C 483.0792 395.43872 483.24118 396.0107 483.2912 396.5407C 483.34418 397.12372 483.28818 397.66373 483.1212 398.1607C 482.9542 398.6567 482.7292 399.10672 482.3902 399.51172C 482.05618 399.9157 481.6572 400.21973 481.1992 400.4767" stroke="none" fill="#221E1F" fill-rule="nonzero"></path><path id="" transform="matrix(1 0 0 -1 0 841)" d="M230.8457 302.1398C 231.2697 301.7368 231.7287 301.4458 232.2207 301.2698C 232.7157 301.0928 233.2057 300.9928 233.7327 301.0028C 234.2587 301.0168 234.7457 301.1428 235.2287 301.3418C 235.7147 301.5418 236.19571 301.8918 236.5617 302.2778C 236.9647 302.7018 237.2187 303.1208 237.3947 303.6138C 237.57071 304.1078 237.6707 304.5998 237.6597 305.1258C 237.6457 305.6528 237.5217 306.1388 237.32271 306.6228C 237.1227 307.1078 236.7737 307.5128 236.35071 307.9158C 235.9667 308.2828 235.5047 308.6478 235.0107 308.8248C 234.5177 308.9998 234.0257 309.1018 233.49971 309.0888C 232.97171 309.0768 232.48671 308.9518 232.0027 308.7498C 231.5177 308.5518 231.0747 308.2418 230.6707 307.8168C 230.3037 307.4308 230.0137 306.9728 229.8367 306.4798C 229.6617 305.9858 229.55971 305.4938 229.57271 304.9668C 229.58571 304.4418 229.7097 303.9548 229.9097 303.4708C 230.1107 302.9868 230.46071 302.5068 230.8457 302.1398" stroke="none" fill="#221E1F" fill-rule="nonzero"></path><path id="" transform="matrix(1 0 0 -1 0 841)" d="M248.0752 322.5372C 247.5802 322.7132 247.0912 322.8132 246.5632 322.8032C 246.0362 322.7892 245.58719 322.7022 245.1042 322.5032C 244.6182 322.3042 244.1732 321.9922 243.7702 321.5662C 243.40419 321.1822 243.0772 320.6842 242.9012 320.1912C 242.72519 319.6972 242.6232 319.2082 242.63719 318.6812C 242.6492 318.1532 242.77519 317.6672 242.97319 317.1832C 243.1752 316.6982 243.5242 316.2182 243.9092 315.8502C 244.33319 315.4462 244.7932 315.1572 245.2852 314.9812C 245.77919 314.8062 246.2712 314.7032 246.7972 314.7162C 247.3232 314.7292 247.80919 314.8542 248.29419 315.0542C 248.77719 315.2542 249.2592 315.6042 249.62619 315.9902C 250.02919 316.4132 250.3192 316.8722 250.4952 317.3642C 250.6732 317.85822 250.73619 318.3112 250.72319 318.8392C 250.71019 319.3652 250.5842 319.8502 250.38719 320.3352C 250.18619 320.8202 249.87419 321.2632 249.4502 321.6662C 249.0662 322.0342 248.56819 322.3612 248.0752 322.5372" stroke="none" fill="#221E1F" fill-rule="nonzero"></path><path id="" transform="matrix(1 0 0 -1 0 841)" d="M240.437 325.0616C 240.87999 325.4446 241.213 325.87363 241.43599 326.34662C 241.65799 326.8196 241.76799 327.26462 241.805 327.79062C 241.843 328.31662 241.76799 328.81262 241.61499 329.31363C 241.463 329.8146 241.19699 330.28662 240.814 330.73062C 240.466 331.13263 240.004 331.50662 239.528 331.7296C 239.056 331.9526 238.575 332.10162 238.05 332.13962C 237.524 332.1766 237.06999 332.13562 236.567 331.9836C 236.066 331.8326 235.593 331.5656 235.151 331.18262C 234.749 330.83463 234.375 330.3716 234.152 329.8976C 233.929 329.4236 233.78099 328.9436 233.743 328.4186C 233.703 327.8926 233.78099 327.39563 233.93199 326.89462C 234.083 326.39563 234.386 325.88263 234.735 325.4796C 235.116 325.0356 235.54399 324.7036 236.019 324.4786C 236.493 324.2556 236.972 324.10962 237.499 324.0696C 238.023 324.03162 238.517 324.10962 239.01999 324.26062C 239.51999 324.41263 240.034 324.71362 240.437 325.0616" stroke="none" fill="#221E1F" fill-rule="nonzero"></path><path id="" transform="matrix(1 0 0 -1 0 841)" d="M220.4004 313.1017C 220.78241 312.65973 221.21141 312.3257 221.68541 312.10272C 222.1584 311.87872 222.63841 311.7307 223.1634 311.69272C 223.6884 311.65472 224.18541 311.7307 224.68541 311.8817C 225.18741 312.03473 225.6994 312.33572 226.10141 312.68372C 226.5464 313.0667 226.83841 313.45972 227.0614 313.9327C 227.28441 314.40872 227.43341 314.88672 227.4714 315.41272C 227.5094 315.9367 227.43341 316.4327 227.2814 316.93372C 227.12941 317.43573 226.82141 317.87372 226.4404 318.31772C 226.0924 318.71973 225.6694 319.12772 225.19441 319.3507C 224.72041 319.57373 224.24141 319.72272 223.7164 319.7607C 223.1904 319.7997 222.69441 319.72272 222.1934 319.57172C 221.69241 319.4187 221.22041 319.1527 220.7774 318.7697C 220.37541 318.42172 220.0424 317.9927 219.8184 317.52072C 219.59541 317.0447 219.44641 316.5667 219.40741 316.0397C 219.3694 315.51572 219.44641 315.0197 219.5984 314.5177C 219.75041 314.01672 220.0534 313.50372 220.4004 313.1017" stroke="none" fill="#221E1F" fill-rule="nonzero"></path><path id="" transform="matrix(1 0 0 -1 0 841)" d="M229.1772 334.2921C 229.6972 334.2001 230.1982 334.2261 230.7132 334.32812C 231.2262 334.4291 231.7662 334.67712 232.2032 334.98212C 232.6812 335.3181 233.0562 335.71213 233.3262 336.15912C 233.5962 336.6091 233.7482 337.0411 233.8392 337.56113C 233.9302 338.0791 233.9032 338.5801 233.8032 339.09412C 233.7022 339.60812 233.4842 340.10413 233.1482 340.5851C 232.8432 341.0201 232.4202 341.4381 231.9702 341.7091C 231.5202 341.97812 231.0592 342.17313 230.5402 342.2661C 230.0222 342.3561 229.5642 342.3591 229.0492 342.25812C 228.5352 342.15912 228.0382 341.94012 227.5582 341.60413C 227.1232 341.2991 226.7052 340.87613 226.4352 340.42612C 226.1652 339.97812 225.96921 339.5151 225.8792 338.9971C 225.78821 338.47812 225.8142 337.9771 225.9142 337.46213C 226.0152 336.94812 226.2632 336.4071 226.5702 335.9721C 226.9062 335.4941 227.2982 335.1191 227.7492 334.84912C 228.1982 334.5791 228.6582 334.3821 229.1772 334.2921" stroke="none" fill="#221E1F" fill-rule="nonzero"></path><path id="" transform="matrix(1 0 0 -1 0 841)" d="M216.4624 330.8351C 216.0124 331.10413 215.5514 331.3001 215.0314 331.39212C 214.5124 331.48212 214.0124 331.4551 213.4974 331.3561C 212.9834 331.25412 212.4864 331.03513 212.0074 330.69913C 211.5724 330.3941 211.1964 330.0021 210.9274 329.5531C 210.6564 329.10312 210.4614 328.64212 210.3704 328.1221C 210.2794 327.60413 210.3054 327.1021 210.4064 326.5881C 210.50641 326.07413 210.75641 325.53412 211.06041 325.09912C 211.3974 324.6191 211.7904 324.2431 212.2384 323.9731C 212.6884 323.7041 213.1504 323.50812 213.6704 323.4171C 214.1884 323.32712 214.6884 323.35312 215.2034 323.45312C 215.7174 323.5551 216.2574 323.80212 216.6934 324.10812C 217.1734 324.44412 217.5034 324.80612 217.7744 325.2571C 218.0434 325.7051 218.2384 326.1671 218.3294 326.68613C 218.4204 327.2041 218.3954 327.70612 218.2954 328.22012C 218.1934 328.7341 217.9324 329.2001 217.5964 329.6791C 217.2894 330.1151 216.9124 330.56412 216.4624 330.8351" stroke="none" fill="#221E1F" fill-rule="nonzero"></path><path id="" transform="matrix(1 0 0 -1 0 841)" d="M208.5312 485.4674C 208.0672 485.72742 207.5502 485.8934 207.0282 485.9414C 206.5072 485.9884 206.0052 485.96442 205.4992 485.8204C 204.99121 485.67642 204.5522 485.43442 204.13321 485.11942C 203.71321 484.8044 203.3372 484.3474 203.07521 483.88242C 202.7912 483.36942 202.6252 482.8544 202.57721 482.3324C 202.5312 481.80942 202.5542 481.3084 202.69821 480.80142C 202.84221 480.2954 203.0852 479.85742 203.39821 479.4374C 203.71321 479.0184 204.17221 478.6394 204.6372 478.3794C 205.14821 478.0954 205.6172 477.9554 206.1392 477.9064C 206.66121 477.8604 207.16321 477.8844 207.67021 478.02942C 208.17621 478.17142 208.6152 478.4154 209.0352 478.7284C 209.45421 479.04242 209.76021 479.4814 210.04521 479.9924C 210.3032 480.4584 210.5432 480.99442 210.5912 481.5154C 210.6372 482.03842 210.6142 482.53842 210.4702 483.0454C 210.3262 483.55142 210.0832 483.9924 209.76921 484.4114C 209.45421 484.8304 209.0422 485.1824 208.5312 485.4674" stroke="none" fill="#221E1F" fill-rule="nonzero"></path><path id="" transform="matrix(1 0 0 -1 0 841)" d="M219.2378 471.5729C 219.3828 471.06592 219.62279 470.6279 219.9388 470.20792C 220.2538 469.7879 220.7128 469.4089 221.1758 469.1509C 221.68779 468.8659 222.2038 468.6989 222.7248 468.65192C 223.2488 468.6029 223.70279 468.6559 224.2078 468.79892C 224.71579 468.9439 225.15579 469.1839 225.57379 469.4999C 225.99379 469.8129 226.3458 470.2269 226.63179 470.7379C 226.88979 471.2019 227.0828 471.7649 227.12979 472.2879C 227.1778 472.8079 227.15479 473.3099 227.0098 473.8169C 226.8658 474.3229 226.6698 474.7369 226.3548 475.1559C 226.04079 475.57492 225.62779 475.9269 225.11679 476.2139C 224.65279 476.4719 224.09079 476.6639 223.56679 476.7119C 223.04579 476.75992 222.5448 476.73392 222.0378 476.5909C 221.53079 476.4459 221.09079 476.2049 220.67279 475.88892C 220.2538 475.5759 219.87479 475.1169 219.61479 474.6529C 219.33179 474.1409 219.1648 473.6249 219.1178 473.1029C 219.06879 472.5819 219.0938 472.07892 219.2378 471.5729" stroke="none" fill="#221E1F" fill-rule="nonzero"></path><path id="" transform="matrix(1 0 0 -1 0 841)" d="M217.895 496.6261C 217.625 497.0761 217.24901 497.4681 216.77 497.8021C 216.335 498.1081 215.839 498.3261 215.324 498.4271C 214.811 498.5281 214.309 498.5531 213.79001 498.4621C 213.272 498.3711 212.809 498.1751 212.36 497.9061C 211.912 497.6351 211.488 497.2161 211.183 496.7811C 210.847 496.3021 210.629 495.80508 210.529 495.2901C 210.42801 494.7761 210.40001 494.2751 210.494 493.7551C 210.585 493.2381 210.78 492.7761 211.05 492.3261C 211.322 491.8781 211.739 491.4561 212.17401 491.1501C 212.653 490.8141 213.106 490.6271 213.62201 490.5251C 214.136 490.4241 214.636 490.4001 215.155 490.4911C 215.67401 490.5821 216.136 490.7781 216.586 491.0481C 217.033 491.3171 217.38301 491.72308 217.71901 492.2031C 218.02301 492.6381 218.31601 493.1471 218.41501 493.6621C 218.517 494.1771 218.543 494.6781 218.45201 495.1961C 218.36 495.7151 218.16501 496.1761 217.895 496.6261" stroke="none" fill="#221E1F" fill-rule="nonzero"></path><path id="" transform="matrix(1 0 0 -1 0 841)" d="M227.8706 487.0397C 227.4216 486.7687 226.99861 486.3517 226.69461 485.9147C 226.35861 485.4357 226.14061 484.9387 226.03961 484.4247C 225.9396 483.9107 225.9136 483.4097 226.0056 482.8917C 226.0966 482.3717 226.29161 481.9107 226.5616 481.4607C 226.8316 481.01172 227.25061 480.5887 227.68561 480.2847C 228.1656 479.9477 228.66261 479.7287 229.1766 479.6297C 229.69061 479.5277 230.1486 479.5327 230.6676 479.6247C 231.18561 479.7167 231.6486 479.9117 232.0966 480.1817C 232.54561 480.4527 232.9376 480.8267 233.2736 481.3067C 233.5776 481.7417 233.82861 482.2817 233.9286 482.79572C 234.02861 483.3107 234.05461 483.8117 233.96361 484.3297C 233.87161 484.8497 233.7196 485.2797 233.4496 485.7297C 233.17961 486.1777 232.8056 486.5707 232.3256 486.9057C 231.89061 487.2107 231.34961 487.4607 230.83461 487.5607C 230.32161 487.6607 229.8186 487.6867 229.3016 487.5967C 228.78261 487.5047 228.3206 487.30872 227.8706 487.0397" stroke="none" fill="#221E1F" fill-rule="nonzero"></path><path id="" transform="matrix(1 0 0 -1 0 841)" d="M239.1597 497.6149C 238.65869 497.7659 238.1617 497.8439 237.6367 497.8049C 237.1107 497.7659 236.6327 497.6169 236.1577 497.3939C 235.6837 497.1699 235.2207 496.7969 234.8727 496.3939C 234.4927 495.9519 234.2237 495.4799 234.0727 494.9789C 233.9207 494.4759 233.8447 493.9809 233.8827 493.4539C 233.9207 492.9289 234.0707 492.4509 234.2927 491.9769C 234.5167 491.5019 234.8897 491.0389 235.2937 490.6919C 235.7357 490.3089 236.2077 490.0409 236.7097 489.8899C 237.2107 489.7389 237.6677 489.6979 238.1937 489.7369C 238.7187 489.7739 239.1977 489.9229 239.67169 490.1459C 240.1447 490.3699 240.5737 490.7029 240.9567 491.1459C 241.3027 491.5489 241.6047 492.0619 241.7577 492.5639C 241.90869 493.0659 241.9857 493.5609 241.9467 494.0849C 241.9077 494.6109 241.7997 495.0559 241.5767 495.53088C 241.3517 496.0039 241.01869 496.4309 240.5767 496.8139C 240.1737 497.1619 239.6607 497.4639 239.1597 497.6149" stroke="none" fill="#221E1F" fill-rule="nonzero"></path><path id="" transform="matrix(1 0 0 -1 0 841)" d="M226.1973 509.2218C 225.7943 509.5698 225.32129 509.83582 224.82129 509.9878C 224.31929 510.1398 223.8233 510.2168 223.2963 510.1788C 222.7723 510.1388 222.29329 509.9908 221.81929 509.7668C 221.3443 509.54282 220.8813 509.1698 220.5353 508.7668C 220.1523 508.3248 219.8853 507.8518 219.73329 507.3508C 219.58229 506.8498 219.5053 506.3538 219.54329 505.8278C 219.5833 505.3018 219.7303 504.8238 219.95529 504.34882C 220.17729 503.8758 220.5513 503.4128 220.95529 503.0638C 221.3973 502.6818 221.8283 502.4508 222.3313 502.2978C 222.8313 502.1468 223.3293 502.0708 223.8533 502.1088C 224.37729 502.1468 224.8593 502.2958 225.3313 502.5198C 225.80629 502.7438 226.19429 503.1108 226.5753 503.5548C 226.9243 503.9568 227.2663 504.4348 227.4173 504.9368C 227.5703 505.4378 227.6473 505.9348 227.6063 506.4588C 227.56929 506.9848 227.4213 507.4648 227.1973 507.9388C 226.97229 508.4108 226.64029 508.8378 226.1973 509.2218" stroke="none" fill="#221E1F" fill-rule="nonzero"></path><path id="" transform="matrix(1 0 0 -1 0 841)" d="M249.7739 505.8365C 249.40889 506.22348 248.9289 506.5755 248.4469 506.77847C 247.9619 506.9805 247.4769 507.10748 246.9489 507.1215C 246.4249 507.13647 245.9319 507.03848 245.43689 506.8645C 244.9439 506.6905 244.4439 506.36548 244.05789 506.0005C 243.63289 505.59848 243.3179 505.1565 243.1169 504.67148C 242.9159 504.18948 242.7869 503.7045 242.77289 503.1775C 242.75789 502.64948 242.8569 502.1575 243.0309 501.6645C 243.2049 501.1695 243.52989 500.6725 243.89389 500.2855C 244.2959 499.8595 244.73889 499.5455 245.2219 499.3425C 245.7059 499.14047 246.1539 499.0535 246.6819 499.03748C 247.2079 499.0235 247.69989 499.1215 248.1939 499.29648C 248.68889 499.46948 249.1469 499.75748 249.5739 500.1605C 249.9599 500.52548 250.31189 501.00348 250.5149 501.4875C 250.7159 501.9705 250.8439 502.45648 250.8589 502.9835C 250.8729 503.5095 250.8109 503.9625 250.6369 504.45648C 250.46289 504.95148 250.17589 505.4115 249.7739 505.8365" stroke="none" fill="#221E1F" fill-rule="nonzero"></path><path id="" transform="matrix(1 0 0 -1 0 841)" d="M236.7344 519.6456C 236.3694 520.03265 235.9264 520.3466 235.4424 520.54865C 234.96141 520.74963 234.47441 520.87665 233.9494 520.89264C 233.4214 520.90765 232.9304 520.80963 232.4344 520.6356C 231.9414 520.46063 231.44241 520.13666 231.0554 519.7706C 230.62941 519.3696 230.3164 518.9276 230.11441 518.4426C 229.9114 517.95966 229.7874 517.4746 229.77141 516.9486C 229.7554 516.42065 229.85341 515.92865 230.0274 515.4356C 230.20241 514.9406 230.5264 514.4436 230.8914 514.05664C 231.29341 513.6306 231.6994 513.3546 232.18341 513.15265C 232.66641 512.9506 233.15141 512.82465 233.6784 512.80963C 234.2044 512.7926 234.6954 512.89264 235.1904 513.0656C 235.6844 513.24164 236.1094 513.5686 236.53441 513.9696C 236.9214 514.33466 237.31041 514.77466 237.5124 515.2576C 237.7144 515.74164 237.8414 516.2276 237.8574 516.7526C 237.8714 517.2796 237.77141 517.77264 237.5984 518.2666C 237.42241 518.76166 237.1354 519.22064 236.7344 519.6456" stroke="none" fill="#221E1F" fill-rule="nonzero"></path><path id="" transform="matrix(1 0 0 -1 0 841)" d="M248.2153 528.9562C 247.8913 529.3772 247.4803 529.7322 247.0193 529.98016C 246.5573 530.22815 246.0883 530.40216 245.5643 530.4682C 245.0423 530.53516 244.5423 530.4862 244.0333 530.36017C 243.5243 530.23517 242.9973 529.9612 242.5753 529.6352C 242.1133 529.2762 241.7583 528.86816 241.50931 528.4062C 241.2633 527.9452 241.0883 527.4742 241.0213 526.95215C 240.9543 526.42816 241.0063 525.9302 241.1293 525.4212C 241.2543 524.9122 241.5283 524.38416 241.85431 523.9632C 242.2133 523.5002 242.5903 523.1872 243.0523 522.93915C 243.5123 522.6922 243.9843 522.5182 244.5063 522.4502C 245.0283 522.3852 245.5283 522.4352 246.03731 522.5602C 246.5453 522.68317 246.9993 522.9682 247.4623 523.3262C 247.88231 523.65216 248.3123 524.05316 248.5603 524.51416C 248.8083 524.9742 248.9823 525.4452 249.0493 525.96716C 249.1163 526.49115 249.0663 526.9902 248.9403 527.4992C 248.8153 528.0082 248.5753 528.49316 248.2153 528.9562" stroke="none" fill="#221E1F" fill-rule="nonzero"></path><path id="" transform="matrix(1 0 0 -1 0 841)" d="M258.6123 515.006C 258.1503 515.25397 257.6803 515.428 257.1583 515.49396C 256.6373 515.562 256.1373 515.51 255.6293 515.385C 255.11931 515.261 254.59131 514.987 254.1703 514.66C 253.7083 514.303 253.3513 513.894 253.10431 513.433C 252.85631 512.97 252.6813 512.5 252.61531 511.97598C 252.55031 511.455 252.60031 510.955 252.7243 510.44598C 252.8493 509.938 253.1233 509.40997 253.4483 508.98898C 253.8063 508.52698 254.21631 508.16998 254.6773 507.92297C 255.1393 507.67297 255.5793 507.542 256.1003 507.477C 256.6233 507.409 257.1213 507.46 257.6323 507.585C 258.14032 507.71 258.6253 507.951 259.08832 508.309C 259.5103 508.636 259.90732 509.077 260.1543 509.53897C 260.4043 509.99997 260.5773 510.472 260.64432 510.994C 260.7103 511.51498 260.6913 511.97397 260.5683 512.482C 260.4423 512.992 260.2013 513.477 259.8433 513.94C 259.5163 514.36 259.0743 514.75696 258.6123 515.006" stroke="none" fill="#221E1F" fill-rule="nonzero"></path><path id="" transform="matrix(1 0 0 -1 0 841)" d="M508.4346 451.0878C 508.55658 451.4788 508.6976 451.9328 508.9326 452.6998C 508.6236 452.75378 508.3306 452.80478 508.02658 452.85678C 504.9286 465.7858 500.3856 478.26678 494.50458 490.1338C 496.2346 491.09378 497.7686 492.27377 498.8336 494.0688C 497.8906 494.95578 497.18158 495.61978 496.42657 496.32977C 500.1826 498.42078 504.0976 499.80377 506.67657 503.5648C 505.41058 504.75278 504.28558 505.80878 502.9296 507.08078C 507.13757 508.7508 509.9846 512.0608 512.02356 515.9538C 510.8436 516.5868 509.9256 517.0558 508.84558 517.6358C 511.45758 519.2568 513.6936 520.73376 514.9566 523.4778C 513.54456 524.0558 512.3226 524.5528 511.00858 525.0928C 514.6246 529.4398 516.11456 531.22577 517.4536 533.0668C 516.8556 533.2908 515.6496 534.64777 515.1726 534.8258L515.1726 534.8258L525.9996 551.7378C 519.8896 548.5768 513.9746 545.0788 508.35858 540.85376C 508.0156 541.4288 507.61258 542.10376 506.93558 543.2398C 503.8906 540.8478 501.0116 538.5888 498.1106 536.3088C 497.71957 537.1728 497.22858 538.2658 496.58258 539.6988C 492.4606 537.35077 489.5206 534.25977 487.5506 529.66876C 486.7216 531.4928 486.01358 533.0558 485.1996 534.8478C 481.38358 532.44775 479.83557 528.6838 478.2126 524.6628C 477.03058 525.9428 476.0966 527.08777 474.9086 528.3738C 473.7256 527.2778 472.79358 526.0478 472.03458 524.7408C 468.4456 529.06976 464.6496 533.2648 460.6226 537.2908C 449.6996 548.2158 437.59558 557.5248 424.6226 565.1578C 424.2006 567.4808 423.41058 569.78076 422.36957 571.9638C 420.92157 571.2908 419.82858 570.6828 418.5026 570.0688C 418.8246 573.7218 419.0156 576.8778 417.30258 580.0408C 415.74258 579.10876 414.39758 578.28076 412.9436 577.41077C 411.3786 583.9718 410.7406 586.6598 409.9416 589.2538C 409.30157 588.8408 407.14658 588.6578 406.6356 588.3288L406.6356 588.3288L398.2346 610.7428C 396.88458 602.6528 395.9976 594.5088 396.0146 586.1328C 395.2186 586.2158 394.2866 586.3128 392.72058 586.47876C 392.7736 584.2088 392.82358 582.0018 392.8726 579.81976C 374.24457 586.2738 354.4756 589.6638 334.1806 589.6638C 286.4176 589.6638 241.51459 571.0648 207.7406 537.2908C 190.86758 520.4178 177.7826 500.76578 168.91159 479.36877L168.91159 479.36877L175.34259 479.36877C 183.89359 499.1808 196.2016 517.3958 211.91858 533.1138C 244.57658 565.77075 287.99658 583.7568 334.1806 583.7568C 354.56158 583.7568 374.3996 580.2428 393.0166 573.52277C 393.0196 573.3838 393.02258 573.2438 393.02557 573.10376C 391.9256 573.3498 390.5316 573.66077 388.7016 574.0708C 388.44757 572.0528 388.4036 570.1138 388.57858 568.2158C 371.30658 574.1708 352.9886 577.30176 334.1806 577.30176C 289.7216 577.30176 247.92259 559.9878 216.48257 528.54877C 202.0326 514.0978 190.57358 497.4528 182.40057 479.36877L182.40057 479.36877L185.65259 479.36877C 193.63959 496.6608 204.7016 512.5888 218.57059 526.4598C 249.45259 557.3418 290.50958 574.3468 334.1806 574.3468C 353.2046 574.3468 371.7306 571.1148 389.13757 564.9198C 389.6756 562.6958 390.53857 560.5008 391.8166 558.2818C 389.4826 558.7958 387.48758 559.2368 385.1936 559.7428C 384.75958 554.38477 387.24258 550.2188 389.9206 545.79675C 388.74158 545.6758 387.6676 545.5458 386.5806 545.4158C 386.9386 545.79376 387.21658 546.2538 387.41357 546.80176C 387.5946 547.3028 387.67157 547.8388 387.63458 548.3608C 387.5966 548.88477 387.49258 549.3738 387.2646 549.85077C 387.03958 550.3268 386.7306 550.72076 386.3516 551.08276C 385.9726 551.4458 385.4586 551.7428 384.95758 551.92175C 384.40558 552.1198 383.8706 552.2008 383.3476 552.16077C 382.8246 552.1238 382.3346 552.01776 381.8576 551.7918C 381.3816 551.5678 380.9896 551.2558 380.6266 550.8788C 380.26358 550.4988 379.9646 549.9848 379.7866 549.4848C 379.5886 548.9328 379.52658 548.4468 379.56458 547.9248C 379.6026 547.4018 379.7086 546.9118 379.93457 546.4348C 380.15958 545.9588 380.47058 545.5638 380.8466 545.20276C 381.2276 544.8408 381.7086 544.6098 382.25858 544.4128C 382.75958 544.2328 383.32858 544.0858 383.8506 544.1238C 383.9726 544.1328 384.08557 544.1598 384.20358 544.17676C 385.03857 538.9088 388.0106 534.95276 391.80957 530.8918C 390.25558 530.6188 389.2396 530.4398 387.85458 530.1968C 388.81058 524.5758 392.12558 520.5298 395.6826 516.1398C 394.60458 515.9518 393.8386 515.8158 392.99658 515.6678C 392.85358 511.78278 394.92758 509.1948 396.84058 506.37878C 397.2436 505.7848 397.78558 504.7638 397.5416 504.39178C 396.3506 502.57678 395.34558 504.26578 398.0816 499.67477C 399.61258 497.1078 401.45358 494.74878 403.15158 492.2888C 402.7406 490.9438 402.3216 489.28677 402.9596 488.32178C 404.9566 485.30978 407.3466 482.55978 409.6006 479.71777C 409.9716 479.24478 410.4176 478.83078 410.95358 478.2588C 409.2616 477.2598 408.64258 475.95477 409.7956 474.56677C 411.69858 472.2798 413.8136 470.17078 415.82758 467.9748C 416.2316 467.53378 416.69757 467.09277 416.93158 466.5608C 417.4326 465.4278 417.5686 464.0698 418.26257 463.09677C 420.17258 460.4308 422.14658 457.7808 424.1676 455.1808L424.1676 455.1808L424.0686 455.16278C 422.49457 457.0828 420.8906 458.9758 419.2476 460.8338C 418.5836 461.5838 417.4986 461.9498 416.6656 462.5698C 416.27658 462.86078 416.0016 463.3248 415.71558 463.7378C 414.29858 465.7948 412.9716 467.9198 411.4546 469.90277C 410.5366 471.1078 409.35358 470.8448 408.2196 469.64877C 407.84958 470.19278 407.59857 470.6338 407.2826 471.0308C 405.38058 473.4018 403.5766 475.8718 401.4896 478.0688C 400.81958 478.77078 399.38757 478.7378 398.21158 478.65378C 396.5166 480.50177 394.9386 482.44778 393.12558 484.1808C 389.88257 487.2768 391.08557 486.1378 389.3776 485.50177C 389.03058 485.3718 388.31158 485.99878 387.90158 486.43878C 385.9566 488.5318 383.9696 490.8208 381.0636 491.30878C 380.7826 490.6468 380.5296 490.04578 380.17157 489.1998C 377.2906 492.91177 374.35358 496.4868 369.8126 498.3708C 369.35458 497.2848 369.01758 496.48877 368.50058 495.26978C 366.1546 499.1908 363.0426 502.65277 358.44458 504.2238C 357.88058 502.5688 357.49158 501.14178 356.92957 499.49377C 353.81558 502.5108 350.87457 505.32278 346.4126 505.9708C 346.39557 503.99878 346.38058 502.28378 346.3656 500.2808C 342.70258 503.6768 338.7586 505.3108 334.03857 505.7848C 334.0316 504.2108 334.0246 503.0128 334.02057 502.06677C 330.4416 502.97278 326.8966 503.86978 323.1416 504.8188C 322.98358 503.50778 322.8896 502.72778 322.8086 502.0618C 315.9596 503.6428 309.1356 504.44278 302.26758 504.8548L302.26758 504.8548L319.0246 493.78677C 318.66058 493.4318 318.1106 491.70178 317.65356 491.2548C 319.6226 490.1178 321.7096 489.0868 326.78058 486.58078C 325.79858 485.5558 324.88058 484.6038 323.82858 483.5048C 326.0946 481.50778 328.7356 481.0648 331.7816 480.6428C 331.0326 479.67578 330.38058 478.87378 329.56158 477.8158C 333.00458 475.0858 336.9486 473.21478 341.47058 473.3938C 340.74957 471.6828 340.1486 470.2628 339.47357 468.6608C 343.35458 466.2718 347.49658 466.5958 351.7796 466.2068C 351.37558 465.25278 350.9976 464.3588 350.4956 463.16278C 354.25757 460.4928 358.87457 461.4148 363.47958 461.1988C 363.15158 460.1518 362.82257 459.1818 362.49258 458.1268C 365.25558 456.14578 368.3006 457.2638 371.2226 457.25278C 371.12558 457.0688 370.7136 456.12778 370.6206 455.9448C 371.52057 455.3668 372.6836 455.1818 373.6496 455.03378C 376.1926 454.6468 378.7866 454.6078 381.3566 454.4178C 381.8136 454.3848 382.2656 454.2978 382.82257 454.2208C 382.68558 453.37778 382.5706 452.6608 382.41458 451.6988C 386.3986 450.5818 390.40958 450.58878 394.6236 451.12778C 394.4376 450.28278 394.31058 449.7198 394.07257 448.6388C 397.46158 448.59677 400.63257 448.5948 403.7996 448.4868C 404.4956 448.4628 403.45758 447.2028 404.15558 447.0018C 404.78958 446.81778 405.5116 446.8198 406.25757 446.88278C 406.2866 446.5188 406.3086 446.22778 406.33557 445.85577C 403.67258 446.59378 401.0936 446.97278 398.4286 446.6258C 398.43658 445.99377 398.44458 445.5218 398.45258 444.96478C 398.08658 444.9668 397.78857 444.95178 397.49258 444.9738C 395.8206 445.09277 394.1486 445.30978 392.4756 445.2978C 391.84158 445.29178 391.0756 445.2818 390.44058 444.99377C 390.4856 444.8668 390.6616 444.22278 390.7046 444.0948C 388.8256 444.36078 386.97058 445.36578 385.0066 444.34778C 385.11957 443.6378 385.24258 442.9838 385.3566 442.27777C 382.3726 442.5708 379.4886 443.5948 376.8186 442.2238C 377.03058 441.4108 377.1886 440.80078 377.3596 440.1478C 374.5676 440.29678 371.93457 440.89178 369.21158 439.7158C 369.4956 438.62277 369.75058 437.65277 370.0576 436.4848C 367.1626 437.01978 364.4506 436.1858 361.9806 434.75177C 362.40857 433.9928 362.75058 433.41678 363.14557 432.7238C 361.1486 432.7368 359.4046 432.69778 357.7606 431.6248C 358.33557 430.8188 358.8366 430.12277 359.3726 429.36978C 355.8766 428.23077 354.4386 427.7638 353.06458 427.21478C 353.31558 426.8848 353.50958 425.7208 353.7096 425.4568L353.7096 425.4568L341.89557 419.8978C 346.35458 419.5228 350.81958 419.4008 355.3706 419.77878C 355.36258 419.3418 355.3506 418.8318 355.33057 417.97278C 357.8336 418.2348 360.2016 418.48077 362.5866 418.7298C 362.5016 418.1218 362.39258 417.3498 362.2516 416.3368C 365.3316 416.20078 368.0246 416.8838 370.6996 418.72778C 370.52057 417.4368 370.36957 416.33078 370.1956 415.06277C 373.1276 415.06277 375.2816 416.59778 377.56958 418.24878C 377.77658 417.1348 377.8936 416.17978 378.1006 415.06277C 381.2066 415.64478 383.53357 417.5828 385.41058 419.8878C 385.62558 419.05478 385.7686 418.5108 385.9646 417.76978C 389.05957 418.5578 391.28458 420.58478 393.4846 422.70477C 393.6356 422.12677 393.74258 421.71478 393.8606 421.2638C 395.7786 421.3058 397.2696 422.59378 398.7176 423.7588C 399.02057 424.0058 399.5416 424.3418 399.7526 424.2248C 400.7926 423.65778 399.9126 423.0358 402.2876 424.7258C 403.61758 425.67078 404.81458 426.7758 406.07758 427.8068C 406.8256 427.64178 407.7456 427.4878 408.2406 427.87878C 409.7866 429.0958 411.17657 430.5178 412.62457 431.8678C 412.8656 432.0908 413.0676 432.35278 413.3576 432.6678C 413.97357 431.7928 414.71057 431.5138 415.41458 432.20178C 416.5746 433.3368 417.62558 434.58078 418.7326 435.7718C 418.95358 436.01178 419.17358 436.2848 419.45258 436.4358C 420.0446 436.75677 420.7056 436.87677 421.20258 437.2988C 421.43658 437.4958 421.8506 437.7288 421.82358 437.8808L421.82358 437.8808L421.9046 437.4178L421.9046 437.4178L423.0456 437.6178C 422.4956 437.37378 421.9506 437.12378 421.43158 436.8288C 421.1706 436.6828 421.0756 436.25378 421.0106 435.89578C 420.33557 435.5298 419.63858 435.2038 418.98758 434.7948C 417.82257 434.05978 418.2516 434.3338 418.3136 433.7768C 418.3256 433.66278 418.0846 433.4958 417.9246 433.40778C 417.1566 432.9838 416.3266 432.5618 415.9626 431.7328C 416.13858 431.5998 416.29858 431.4798 416.52557 431.30978C 415.2046 430.7288 413.9206 430.11978 413.02057 428.9098C 413.31058 428.6908 413.52158 428.5318 413.8466 428.28677C 412.50458 427.8808 411.2396 427.21478 410.4286 425.9608C 410.88058 425.6688 411.2746 425.4458 411.72458 425.1568C 410.5936 424.4538 409.53558 423.78677 409.01257 422.50677C 409.59857 422.3548 410.1066 422.22278 410.70258 422.0688C 409.4176 421.23077 408.6356 420.17978 408.1446 418.8078C 408.61258 418.68777 408.9676 418.5958 409.2486 418.52478C 408.7136 417.52777 408.18158 416.5358 407.61957 415.4918C 407.99658 415.3448 408.2216 415.2588 408.4156 415.18478C 407.4336 413.2628 406.68457 411.29077 406.0506 409.2758L406.0506 409.2758L410.5976 413.4408C 410.6756 413.3058 411.15057 413.0138 411.2476 412.84277C 411.73657 413.3448 412.1966 413.89078 413.32257 415.2128C 413.5546 414.84378 413.7696 414.5008 414.0186 414.1048C 414.7826 414.6298 415.1106 415.3848 415.4636 416.26178C 415.6956 415.96378 415.8866 415.7118 416.13858 415.38678C 417.2096 416.2088 418.06058 417.24478 418.3446 418.6048C 418.79858 418.2628 419.1796 417.97678 419.6056 417.6568C 420.6076 418.6338 420.81958 419.89078 421.25558 421.13678C 421.50958 420.94778 421.7476 420.7678 422.0636 420.52878C 423.14258 421.45078 423.21158 422.8938 423.6186 424.24878C 423.90857 424.0748 424.1706 423.90378 424.46057 423.72678C 425.25757 424.40277 425.15057 425.39178 425.3726 426.26178C 425.4196 426.2198 425.6696 426.0268 425.71658 425.9848C 425.9566 426.2088 426.09857 426.54178 426.21558 426.8198C 426.52057 427.5478 426.72458 428.31778 426.9726 429.0688C 427.01758 429.20178 427.07758 429.32977 427.1416 429.49078C 427.3816 429.38678 427.58658 429.2988 427.8636 429.1828C 428.4936 430.2848 428.78958 431.4788 428.9416 432.77478C 429.1786 432.6568 429.3396 432.57678 429.64258 432.42477C 429.90958 433.4308 430.14658 434.3748 430.4126 435.30878C 430.47357 435.51578 430.77057 435.1128 430.88257 435.3058C 431.1526 435.7688 431.0806 436.5138 431.2706 437.0088C 431.4636 437.5088 431.46158 437.3838 431.79758 437.8448C 431.8426 437.9068 431.88458 437.98578 431.92258 438.07178C 433.91858 429.6508 436.2746 417.91678 435.9496 410.56778C 435.9496 410.56778 437.6486 413.9178 438.4626 417.4958C 438.9326 419.5578 437.24957 429.3598 435.74258 437.29178C 435.78458 437.32977 435.82758 437.3448 435.86658 437.28778C 436.44058 436.50278 436.98657 435.6958 437.57858 434.8418C 437.8126 435.0878 437.93457 435.21777 438.1186 435.4098C 438.7056 434.24478 439.3936 433.2248 440.3636 432.40277C 440.5806 432.60678 440.7436 432.76077 440.9326 432.9398C 441.04758 432.8108 441.1486 432.70978 441.2356 432.6008C 441.7256 431.9798 442.18158 431.32678 442.71558 430.7458C 442.9206 430.5258 443.1706 430.26077 443.4716 430.13177C 443.49957 430.1868 443.66858 430.4538 443.7016 430.51077C 444.20358 429.7688 444.4426 428.8018 445.42358 428.4398C 445.6356 428.70578 445.8256 428.95578 446.03458 429.21878C 446.88058 428.08478 447.4416 426.75177 448.7696 426.2548C 448.9856 426.58878 449.14758 426.8378 449.3216 427.10278C 450.1566 426.0818 450.7866 424.9718 452.0626 424.39578C 452.3526 424.84378 452.6136 425.23978 452.92157 425.7208C 453.65558 424.53778 454.8076 423.85577 456.09457 423.4488C 456.1706 423.6808 456.2346 423.88177 456.29758 424.08078C 456.2996 424.05978 456.2956 424.04077 456.29858 424.01978C 456.35358 423.49078 456.5236 422.9198 456.7866 422.4668C 457.04858 422.01178 457.35858 421.6178 457.76758 421.28677C 458.17758 420.9568 458.5766 420.73178 459.0756 420.57178C 459.57358 420.4108 460.11258 420.36078 460.6966 420.4228C 461.22357 420.4798 461.79358 420.6468 462.2476 420.9098C 462.70258 421.1728 463.0966 421.48178 463.42657 421.89178C 463.6316 422.14578 463.78458 422.4228 463.9156 422.70978L463.9156 422.70978L467.66357 421.15778C 466.61758 422.52377 465.47858 423.81677 464.24957 425.0518C 464.1826 425.5008 464.0536 425.91177 463.86157 426.2818C 463.9286 426.33978 463.9846 426.3888 464.06857 426.4618C 463.72958 426.7638 463.41357 427.0448 463.08557 427.3368C 462.99557 427.4268 462.9166 427.52377 462.8166 427.60577C 462.7796 427.63577 462.7386 427.65277 462.7016 427.6808C 462.30157 428.0358 461.89258 428.4008 461.49557 428.7548C 461.73657 428.9178 462.03857 429.1248 462.4376 429.39877C 461.5066 430.5188 460.4126 431.23978 458.91858 431.5878C 459.4246 431.9358 459.86157 432.2338 460.35757 432.57678C 459.42657 433.6008 458.20358 433.86578 456.90158 434.13977C 457.22357 434.5648 457.5206 434.9098 457.84558 435.3378C 456.6546 436.2378 455.2386 436.43378 453.83658 436.35678C 454.06058 436.69678 454.20258 436.9188 454.40158 437.22278C 453.1396 438.05377 451.7266 438.1868 450.2866 438.2798C 450.4416 438.5178 450.5496 438.68478 450.6706 438.86978C 450.04657 439.5258 449.1226 439.6378 448.25458 439.7728C 448.07257 439.80078 447.78857 439.87677 447.7646 439.9868C 447.63058 440.5298 448.1276 440.4198 446.7826 440.7118C 446.03058 440.8768 445.2646 440.94278 444.5016 441.0558C 444.32257 441.36978 444.0106 441.72678 443.71658 441.7758C 443.5426 441.80478 443.5026 441.8498 443.1196 441.8358L443.1196 441.8358L442.95358 442.78278C 443.76257 442.56677 444.1546 442.36978 444.5716 442.3548C 445.69858 442.31677 445.5376 442.4718 446.5506 442.15878C 447.5506 441.8508 448.6416 440.8358 449.6916 440.68878C 450.1276 440.62778 449.8726 441.5868 450.2656 441.42578C 452.04858 440.7028 453.81058 439.9188 455.7016 439.1038C 455.8346 439.7628 455.9066 440.10678 456.01257 440.61978C 458.2146 439.2798 460.4376 438.28278 462.92258 437.91678C 463.07758 438.4888 463.1876 438.9148 463.32358 439.41577C 463.65158 439.32178 463.92258 439.25778 464.1836 439.16278C 465.6576 438.63177 467.1056 438.0128 468.60858 437.5958C 469.1826 437.4398 469.8736 437.25378 470.5146 437.35278C 470.5076 437.47778 470.51257 438.10178 470.50558 438.2258C 472.1266 437.5088 473.5366 436.1348 475.56058 436.5518C 475.63858 437.21777 475.6966 437.8368 475.7746 438.49878C 478.37958 437.47778 480.7136 435.82578 483.4596 436.37378C 483.4756 437.1608 483.4886 437.7498 483.4986 438.3798C 485.97058 437.5348 488.1876 436.32977 490.93057 436.6938C 490.95358 437.74777 490.97058 438.6858 490.99258 439.81277C 492.3696 439.1338 493.80258 438.88177 495.24957 438.8808C 496.8266 429.7088 497.6786 420.34778 497.6786 410.85077C 497.6786 367.17978 480.66858 326.1228 449.7906 295.2418C 418.9116 264.3618 377.85358 247.35579 334.1806 247.35579C 290.50958 247.35579 249.45259 264.3618 218.57059 295.2418C 207.85458 305.95776 198.81259 317.9038 191.56857 330.7548L191.56857 330.7548L188.19559 330.7548C 195.70059 317.12177 205.17258 304.4638 216.48257 293.1538C 247.92259 261.71478 289.7216 244.40178 334.1806 244.40178C 378.64258 244.40178 420.44058 261.71478 451.87958 293.1538C 483.3166 324.5908 500.63058 366.39178 500.63058 410.85077C 500.63058 420.4618 499.7736 429.9358 498.1876 439.2208C 498.35458 439.2588 498.5236 439.27478 498.69058 439.31778C 498.4976 440.10678 498.3346 440.7118 498.15958 441.4328C 499.95258 440.9138 501.52557 440.50677 503.2776 441.0518C 502.9636 441.9228 502.69058 442.67578 502.40158 443.4888C 502.9946 443.51178 503.5076 443.53278 503.9906 443.5518C 506.02158 432.88278 507.08557 421.95078 507.08557 410.85077C 507.08557 364.6648 489.1026 321.24478 456.4426 288.5888C 423.7866 255.93079 380.36658 237.94579 334.1806 237.94579C 287.99658 237.94579 244.57658 255.93079 211.91858 288.5888C 199.3136 301.19278 188.90659 315.4048 180.8646 330.7548L180.8646 330.7548L174.2106 330.7548C 182.7056 313.8288 193.9596 298.1938 207.7406 284.41077C 241.51459 250.63678 286.4176 232.03578 334.1806 232.03578C 381.94458 232.03578 426.84958 250.63678 460.6226 284.41077C 494.3956 318.18378 512.99457 363.08777 512.99457 410.85077C 512.99457 422.70178 511.8436 434.3758 509.6056 445.74878L509.6056 445.74878L520.5126 447.55377C 516.6046 449.02478 512.62256 450.2718 508.4346 451.0878M431.1456 554.03577C 440.1196 547.9308 448.59857 540.95776 456.4426 533.1138C 461.1836 528.3728 465.5766 523.3818 469.6886 518.2118C 469.55557 517.5148 469.4386 516.8138 469.3526 516.1078C 468.3856 517.0138 467.7536 517.6058 466.8936 518.41077C 465.80157 517.2628 464.9516 516.0128 464.2386 514.7038C 460.3916 519.5028 456.2906 524.1378 451.87958 528.54877C 445.2096 535.2188 438.04858 541.2118 430.52057 546.5788C 430.94458 549.0598 431.3246 551.4798 431.1456 554.03577M446.1786 487.00378C 445.15958 484.1478 444.5156 481.1608 443.7386 478.21878C 443.6096 477.7298 443.5586 477.22278 443.4416 476.5778C 441.92157 477.20978 440.7316 476.9698 440.38058 475.4958C 439.80157 473.0708 439.4496 470.58978 438.98657 468.1338C 438.8946 467.63977 438.8306 467.1038 438.5936 466.6808C 438.0846 465.77478 437.2386 465.0008 436.9376 464.04578C 436.9256 464.0088 436.91458 463.9718 436.9046 463.9328C 437.09158 464.9498 437.1626 465.8488 437.0506 466.53677C 436.69757 468.7208 436.4856 468.2978 436.7016 470.36877C 436.91458 472.4108 438.46957 474.8718 438.3516 476.94678C 438.3046 477.81378 436.5636 476.9448 436.7186 477.7628C 437.4386 481.4698 438.28058 485.15778 439.1326 489.10577C 437.8126 489.11478 437.12457 489.1218 436.0936 489.12878C 437.8396 493.88278 438.91458 498.5398 438.67657 503.4668C 437.5186 503.54178 436.65558 503.5998 435.63757 503.66577C 435.69757 504.33478 435.7176 504.88177 435.79657 505.4198C 436.26257 508.4578 436.9086 511.4828 437.1326 514.5378C 437.2186 515.7018 437.3136 517.1028 436.8816 518.3038C 436.6436 518.2428 435.4416 518.0128 435.20358 517.95276C 435.96658 521.34875 438.0756 524.58777 436.5076 528.32776C 435.19458 528.22577 433.97058 528.14777 432.6666 528.0448C 433.40057 532.1128 434.9076 535.8618 434.6926 539.7718C 439.9426 535.6618 445.0016 531.2488 449.7906 526.4598C 454.48657 521.7638 458.8206 516.80676 462.8636 511.66678C 462.1616 509.7818 461.63757 507.8158 461.14658 505.82578C 460.4756 506.45477 459.9986 506.9008 459.47858 507.39078C 457.0166 505.7678 456.1286 502.86877 455.2006 500.16678C 455.0036 499.5968 454.60358 498.7328 454.23257 498.7108C 452.4116 498.59778 453.0496 500.12677 451.3436 495.98178C 450.38757 493.6638 449.7356 491.24377 448.93558 488.86877C 447.8246 488.46878 446.5036 487.91678 446.1786 487.00378M482.30157 480.2458C 482.29858 480.24777 482.2906 480.2558 482.2876 480.25778C 482.2906 480.2588 482.29257 480.2598 482.2946 480.26077C 482.29758 480.2558 482.2996 480.2508 482.30157 480.2458M488.8816 458.1078C 488.9776 459.1608 489.1156 460.0488 489.2136 461.10678C 486.2746 461.37277 483.69357 460.22278 481.4216 458.6298C 481.4376 459.43378 481.4466 459.9588 481.46158 460.6728C 478.47858 460.7518 475.96558 459.49777 473.4506 458.1518C 473.46057 458.7088 473.4676 459.10678 473.47858 459.54077C 471.7446 459.9918 470.0766 459.21478 468.47958 458.5348C 468.1456 458.3928 467.59058 458.22278 467.4296 458.38177C 466.6406 459.1548 467.5886 459.48978 465.02557 458.57578C 463.59058 458.06378 462.2356 457.3748 460.8376 456.7688C 460.2056 457.1078 459.4196 457.48077 458.8766 457.25677C 457.1756 456.5558 455.56558 455.63278 453.92157 454.78778C 453.65057 454.6468 453.3996 454.46478 453.0626 454.25278C 452.72858 455.19778 452.1356 455.63577 451.3296 455.1948C 450.75058 454.8808 450.1876 454.5398 449.6266 454.19278C 449.96158 454.5838 450.15158 454.7628 451.09857 455.3288C 452.57758 456.2128 455.00858 456.40378 456.3426 457.52478C 456.8996 457.9928 455.4386 458.7238 456.0666 459.02777C 458.91858 460.41278 461.8166 461.6998 464.89658 463.1118C 464.2396 464.0048 463.89658 464.46777 463.37958 465.1638C 467.45358 466.38278 471.12057 468.0018 474.3086 470.6388C 473.7776 471.45477 473.38058 472.06378 472.91458 472.7798C 473.3916 473.07678 473.7696 473.3378 474.1706 473.55377C 476.44458 474.77078 478.8006 475.85678 480.9676 477.2428C 481.6196 477.6608 482.3696 478.1568 482.94858 478.78778C 485.9286 472.26978 488.5016 465.57278 490.5936 458.7068C 490.0276 458.5228 489.4586 458.31778 488.8816 458.1078M494.9326 455.9308C 495.4196 457.0448 495.83658 457.99878 496.31558 459.0958C 495.3386 459.3718 494.4066 459.4308 493.49158 459.3508C 491.21658 466.85678 488.3956 474.1738 485.07858 481.2688C 486.9506 481.9018 488.7666 482.6468 489.9116 484.5968C 489.18057 485.42978 488.4886 486.17978 487.7616 487.0058C 488.21558 487.2328 488.67657 487.4438 489.13757 487.6518C 494.09558 477.67178 498.06058 467.2378 500.9886 456.4608C 499.00958 456.79178 497.04758 456.64877 494.9326 455.9308" stroke="none" fill="#221E1F" fill-rule="nonzero"></path><path id="" transform="matrix(1 0 0 -1 0 841)" d="M369.42258 402.4546L370.23657 402.4546L370.23657 402.4546L369.8246 403.1106C 369.66058 403.3736 369.5326 403.5556 369.4386 403.6586C 369.3396 403.75958 369.21957 403.8556 369.07358 403.94058C 369.3696 403.9846 369.5926 404.0876 369.7396 404.2526C 369.88858 404.41858 369.96158 404.6276 369.96158 404.87958C 369.96158 405.0796 369.91458 405.25458 369.81458 405.41058C 369.71658 405.56558 369.5876 405.6716 369.42258 405.73358C 369.2606 405.79358 368.9976 405.8246 368.6396 405.8246L368.6396 405.8246L367.2046 405.8246L367.2046 405.8246L367.2046 402.4546L367.2046 402.4546L367.8866 402.4546L367.8866 402.4546L367.8866 403.8616L367.8866 403.8616L368.0246 403.8616C 368.18057 403.8616 368.29358 403.8476 368.36758 403.82358C 368.4386 403.7966 368.5076 403.7516 368.57358 403.6826C 368.6366 403.6156 368.75458 403.44858 368.93057 403.1876zM368.3896 404.3986L367.8866 404.3986L367.8866 404.3986L367.8866 405.25458L367.8866 405.25458L368.4176 405.25458C 368.69357 405.25458 368.8596 405.2516 368.9126 405.24258C 369.0246 405.2236 369.1096 405.1806 369.1706 405.1106C 369.2316 405.0416 369.2606 404.94858 369.2606 404.83658C 369.2606 404.73358 369.2406 404.6506 369.1916 404.58258C 369.14658 404.5156 369.08157 404.4686 369.0016 404.43958C 368.9196 404.4136 368.71658 404.3986 368.3896 404.3986" stroke="none" fill="#221E1F" fill-rule="nonzero"></path><path id="" transform="matrix(1 0 0 -1 0 841)" d="M372.0701 404.1398C 372.0701 405.9868 370.5681 407.4888 368.7221 407.4888C 366.8731 407.4888 365.3731 405.9868 365.3731 404.1398C 365.3731 402.2918 366.8731 400.7878 368.7221 400.7878C 370.5681 400.7878 372.0701 402.2918 372.0701 404.1398M365.8691 404.1398C 365.8691 405.71082 367.14713 406.9918 368.7221 406.9918C 370.29312 406.9918 371.5741 405.71082 371.5741 404.1398C 371.5741 402.5658 370.29312 401.2868 368.7221 401.2868C 367.14713 401.2868 365.8691 402.5658 365.8691 404.1398" stroke="none" fill="#221E1F" fill-rule="nonzero"></path><path id="" transform="matrix(1 0 0 -1 0 841)" d="M124.918 422.2428C 121.156 422.2428 117.256996 423.2688 115.272995 426.4158C 114.726 421.0118 114.11 418.75378 112.673 415.4028C 114.726 414.7868 118.966995 413.5548 125.944 413.5548C 139.762 413.5548 144.345 421.7638 144.345 429.5628C 144.345 437.2918 140.309 439.89178 135.248 442.6968C 129.56999 445.9798 127.175 447.3478 127.175 450.4948C 127.175 453.57278 129.433 455.0098 132.716 455.0098C 136.068 455.0098 139.557 454.0518 141.47299 451.3158C 141.678 455.2838 142.088 457.6088 143.662 461.5758C 141.746 462.0558 137.3 463.1498 131.211 463.1498C 127.175 463.1498 118.556 462.7398 115.136 453.8468C 114.382996 451.9998 113.973 449.87878 113.973 447.5538C 113.973 439.4808 118.966995 436.6768 123.824 433.9408C 127.997 431.5458 128.476 431.2728 128.954 430.8618C 130.186 429.8358 130.938 428.6048 130.938 426.9628C 130.938 425.0478 129.843 422.2428 124.918 422.2428" stroke="none" fill="#221E1F" fill-rule="nonzero"></path><path id="" transform="matrix(1 0 0 -1 0 841)" d="M151.8711 432.2306C 153.51309 418.68558 153.6501 417.1806 153.7871 414.0346C 155.9751 414.2396 158.1641 414.44458 161.24309 414.44458C 164.7311 414.44458 166.4411 414.2396 168.35709 414.0346C 168.6301 417.4546 168.9041 418.54858 170.0671 423.8166L170.0671 423.8166L174.65009 445.09058L174.65009 445.09058L176.15509 435.1716C 178.07109 419.5066 178.2761 417.7276 178.54909 414.0346C 180.46509 414.3076 183.26909 414.44458 185.73209 414.44458C 187.9211 414.44458 190.99908 414.1706 193.59909 414.0346C 193.8721 418.54858 194.2831 420.9436 196.47209 431.81958L196.47209 431.81958L198.4551 440.78058C 199.75609 447.14258 201.4661 455.2146 202.56009 459.0456C 203.0391 460.89258 203.3121 461.43958 203.9961 462.6706C 202.15009 462.46558 200.91809 462.2606 198.4551 462.2606C 197.3611 462.2606 196.19809 462.3296 195.1041 462.39758C 193.9411 462.5346 192.84709 462.6026 191.8891 462.6706C 192.1621 461.8506 192.2991 461.37158 192.2991 460.2086C 192.2991 456.2406 190.5891 445.4326 189.90509 441.1916L189.90509 441.1916L187.6471 428.1266L187.6471 428.1266L186.0741 439.61758C 184.9791 447.2106 184.56909 450.2216 183.6801 458.3616C 183.4751 460.4136 183.4061 461.1666 183.33809 462.6706C 181.42209 462.46558 179.5071 462.2606 176.2921 462.2606C 174.65009 462.2606 173.4191 462.3296 172.18709 462.39758C 171.02509 462.46558 169.9301 462.6026 168.56209 462.6706C 168.4251 458.84058 166.92009 450.5636 165.5521 443.5856L165.5521 443.5856L162.8851 428.67258L162.8851 428.67258L161.44809 441.7386C 160.96909 446.7326 160.83209 447.82758 160.1481 457.5406L160.1481 457.5406L160.0111 459.86658C 160.0111 461.2346 160.21709 461.8506 160.42209 462.6706C 158.91609 462.46558 157.0011 462.2606 153.51309 462.2606C 151.8031 462.2606 150.57109 462.3296 149.54509 462.39758C 148.4511 462.46558 147.5611 462.5346 146.5351 462.6706C 147.49309 460.6876 147.8351 459.9346 148.31409 456.65158z" stroke="none" fill="#221E1F" fill-rule="nonzero"></path><path id="" transform="matrix(1 0 0 -1 0 841)" d="M210.0186 462.3292C 208.1716 462.3972 206.7356 462.6022 205.0936 462.7402C 206.2566 460.8242 206.6666 459.86618 206.8036 454.8722C 206.9406 449.87918 206.9406 449.1262 206.9406 444.7482L206.9406 444.7482L206.9406 432.5722C 206.9406 429.0832 206.8726 421.6962 206.6666 418.6172C 206.4616 416.1542 206.0516 415.4712 205.2986 414.03418C 210.7716 414.3762 216.2436 414.3762 221.6476 414.3762C 228.6256 414.3762 231.4976 414.1712 234.5086 414.03418C 234.3716 416.6342 234.5086 418.9592 235.5346 424.9792C 234.3716 424.02118 233.4136 423.2692 230.5406 422.8582C 228.8986 422.6532 227.32559 422.5852 225.6846 422.5852C 219.3226 422.5852 219.3226 422.99518 219.3226 427.5102L219.3226 427.5102L219.4586 434.55618L219.4586 434.55618L225.3416 434.55618C 230.0616 434.55618 231.01959 434.2142 232.1826 433.46118C 231.8406 435.10318 231.6356 436.4032 231.6356 438.5922C 231.6356 441.2602 231.9086 442.6962 232.1826 444.0642C 229.9936 442.97018 228.0096 443.0382 223.4956 443.0382L223.4956 443.0382L219.3906 443.0382L219.3906 443.0382L219.3906 453.57318C 222.4006 453.6412 225.4106 453.6412 228.5576 453.50418C 232.7296 453.2992 233.2766 452.7522 234.3036 451.52118C 234.1656 452.95718 234.0976 454.0522 234.0976 455.8992C 234.0976 459.31918 234.4396 461.5762 234.5766 462.7402C 229.8566 462.3292 224.3156 462.1232 217.4756 462.1232C 214.1916 462.1232 211.8656 462.1922 210.0186 462.3292" stroke="none" fill="#221E1F" fill-rule="nonzero"></path><path id="" transform="matrix(1 0 0 -1 0 841)" d="M245.7271 453.9152C 247.3691 454.12018 248.9421 454.18918 250.58409 454.18918C 256.9461 454.18918 256.9461 453.7782 256.9461 449.26318L256.9461 449.26318L256.80908 442.2172L256.80908 442.2172L250.9261 442.2172C 246.2061 442.2172 245.2481 442.56018 244.0851 443.3122C 244.4281 441.6702 244.6331 440.3712 244.6331 438.1822C 244.6331 435.5142 244.3591 434.07718 244.0851 432.7092C 246.2741 433.8042 248.2581 433.7352 252.7731 433.7352L252.7731 433.7352L256.8771 433.7352L256.8771 433.7352L256.8771 423.2012C 253.8681 423.1322 250.8581 423.1322 247.71109 423.2692C 243.5381 423.47418 242.99109 424.02118 241.9651 425.2522C 242.1021 423.8162 242.17009 422.7222 242.17009 420.8742C 242.17009 417.4542 241.8281 415.1972 241.6911 414.03418C 246.4111 414.44418 251.9521 414.6492 258.79208 414.6492C 262.0771 414.6492 264.4021 414.58118 266.24908 414.44418C 268.0961 414.3762 269.5321 414.1712 271.1751 414.03418C 270.0121 415.9492 269.6011 416.9072 269.4641 421.90118C 269.3281 426.8942 269.3281 427.6472 269.3281 432.0252L269.3281 432.0252L269.3281 444.2012C 269.3281 447.6902 269.39508 455.0782 269.6011 458.1562C 269.8061 460.6192 270.2171 461.3032 270.9691 462.7402C 265.4971 462.3972 260.0241 462.3972 254.6201 462.3972C 247.6431 462.3972 244.7691 462.60318 241.7601 462.7402C 241.8961 460.1402 241.7601 457.81418 240.7341 451.7942C 241.8961 452.7522 242.8541 453.50418 245.7271 453.9152" stroke="none" fill="#221E1F" fill-rule="nonzero"></path><path id="" transform="matrix(1 0 0 -1 0 841)" d="M307.9787 460.00342C 304.2157 462.3294 299.7697 462.53442 296.0757 462.53442C 295.1177 462.53442 293.5437 462.4664 291.6977 462.4664C 289.8497 462.3974 287.7297 462.3294 285.6777 462.3294C 283.6257 462.3294 281.6417 462.3974 279.9997 462.3974C 278.3577 462.4664 277.1267 462.53442 276.5797 462.53442C 277.4687 460.96143 277.8107 460.2084 278.01572 456.24042C 278.2897 451.99942 278.2217 448.92142 278.2217 445.5014L278.2217 445.5014L278.2217 433.11942C 278.3577 418.0024 277.9477 416.83942 276.9217 414.10242L276.9217 414.10242L281.5047 414.3074C 286.2247 414.4444 290.73972 414.10242 294.43372 414.10242C 301.0697 414.10242 309.0037 415.19742 313.1767 423.3374C 315.8447 428.3994 316.2557 435.5134 316.2557 439.4124C 316.2557 451.52142 312.5607 457.19843 307.9787 460.00342M294.6387 422.6534C 292.5177 422.6534 291.4917 423.13242 291.2867 425.3894C 291.1507 427.5784 291.1507 431.47742 291.1507 434.8984L291.1507 434.8984L291.1507 444.06442C 291.2187 450.1534 291.2867 451.7264 291.4237 454.18942C 292.0387 454.18942 292.9967 454.3254 294.43372 454.3254C 301.0697 454.3254 302.5737 449.7424 302.5737 438.0444C 302.5737 428.33142 301.5477 422.6534 294.6387 422.6534" stroke="none" fill="#221E1F" fill-rule="nonzero"></path><path id="" transform="matrix(1 0 0 -1 0 841)" d="M105.6308 404.9305C 101.2408 407.6445 96.0538 407.8835 91.744804 407.8835C 90.6268 407.8835 88.7918 407.8045 86.6368 407.8045C 84.481804 407.7235 82.007805 407.6445 79.6138 407.6445C 77.2198 407.6445 74.9048 407.7235 72.9898 407.7235C 71.0748 407.8045 69.6378 407.8835 68.9998 407.8835C 70.0378 406.04852 70.4368 405.1705 70.675804 400.5425C 70.994804 395.5935 70.9148 392.0035 70.9148 388.0125L70.9148 388.0125L70.9148 373.5685C 71.0748 355.93152 70.5958 354.57452 69.3988 351.3815L69.3988 351.3815L74.745804 351.62152C 80.2528 351.78052 85.519806 351.3815 89.828804 351.3815C 97.5698 351.3815 106.827805 352.65952 111.6958 362.15552C 114.8078 368.06152 115.286804 376.3615 115.286804 380.90952C 115.286804 395.03552 110.97681 401.65952 105.6308 404.9305M90.0688 361.3575C 87.5938 361.3575 86.397804 361.9165 86.1578 364.5495C 85.9988 367.10352 85.9988 371.65253 85.9988 375.64252L85.9988 375.64252L85.9988 386.33652C 86.077805 393.4385 86.1578 395.2755 86.3178 398.14752C 87.035805 398.14752 88.1528 398.30652 89.828804 398.30652C 97.5698 398.30652 99.325806 392.9605 99.325806 379.3135C 99.325806 367.9815 98.1288 361.3575 90.0688 361.3575" stroke="none" fill="#221E1F" fill-rule="nonzero"></path><path id="" transform="matrix(1 0 0 -1 0 841)" d="M161.7376 381.5476C 163.5726 384.5816 164.37059 388.8106 164.37059 391.9226C 164.37059 397.5086 161.7376 408.0436 146.6536 408.0436C 144.2596 408.0436 141.78659 407.9636 139.0726 407.8046C 136.27959 407.7236 133.2466 407.5646 129.7356 407.5646C 127.34159 407.5646 125.665596 407.6446 124.22859 407.7236C 122.8716 407.8046 121.75459 407.8836 120.3976 408.0436C 121.515594 406.6076 122.07459 405.5696 122.2336 401.5006C 122.39359 397.6696 122.473595 393.1206 122.473595 387.2136L122.473595 387.2136L122.6326 373.96658C 122.71259 367.9016 122.71259 363.1136 122.5526 358.2456C 122.39359 354.0156 122.07459 352.9786 121.35559 351.3016C 124.1496 351.62158 126.224594 351.7806 130.0546 351.7806C 134.7636 351.7806 136.59859 351.5416 139.3116 351.3016C 138.1146 353.6966 137.5566 354.8926 137.5566 364.9496L137.5566 364.9496L137.63559 372.2106L137.63559 372.2106L139.63159 372.13058L139.63159 372.13058L141.94559 372.2916C 146.4146 363.5116 149.5266 357.4466 151.2826 351.3016C 153.9166 351.62158 156.7096 351.8616 161.17859 351.8616C 165.2486 351.8616 167.48259 351.62158 170.2766 351.3016C 166.0466 356.5696 159.5826 368.7796 156.0716 376.3616C 157.7466 377.3186 159.9016 378.5156 161.7376 381.5476M140.3496 382.1066C 139.47159 382.1066 138.5136 382.1066 137.63559 382.2666L137.63559 382.2666L137.63559 398.14758C 138.9126 398.3876 140.1106 398.5456 141.30759 398.5456C 146.97359 398.5456 148.1706 394.4766 148.1706 390.7256C 148.1706 382.9056 143.7016 382.1066 140.3496 382.1066" stroke="none" fill="#221E1F" fill-rule="nonzero"></path><path id="" transform="matrix(1 0 0 -1 0 841)" d="M173.7114 356.6486C 173.47139 353.77658 172.9934 352.97858 172.1154 351.30157C 178.5004 351.7016 184.8844 351.7016 191.1884 351.7016C 199.32939 351.7016 202.68039 351.46158 206.1924 351.30157C 206.0324 354.3346 206.1924 357.04758 207.3894 364.0706C 206.0324 362.95358 204.91539 362.0766 201.5634 361.5966C 199.64839 361.3576 197.8124 361.2776 195.8974 361.2776C 188.4754 361.2776 188.4754 361.75558 188.4754 367.0236L188.4754 367.0236L188.6344 375.2436L188.6344 375.2436L195.4984 375.2436C 201.0044 375.2436 202.12239 374.8446 203.4784 373.96658C 203.07939 375.8826 202.8404 377.3986 202.8404 379.95258C 202.8404 383.06458 203.1594 384.7406 203.4784 386.33658C 200.9244 385.0596 198.6104 385.1396 193.3434 385.1396L193.3434 385.1396L188.55539 385.1396L188.55539 385.1396L188.55539 397.4296C 192.06639 397.5086 195.5784 397.5086 199.24939 397.34958C 204.1174 397.1106 204.7554 396.4716 205.9524 395.03558C 205.7934 396.71158 205.7134 397.9886 205.7134 400.1436C 205.7134 404.1326 206.1124 406.7666 206.2724 408.1236C 200.7654 407.6446 194.3004 407.40558 186.32039 407.40558C 182.4894 407.40558 179.7764 407.4846 177.62239 407.6446C 175.4664 407.7236 173.7914 407.9636 171.87639 408.1236C 173.23239 405.88858 173.7114 404.7716 173.87039 398.9456C 174.0304 393.1206 174.0304 392.24258 174.0304 387.13458L174.0304 387.13458L174.0304 372.9296C 174.0304 368.8596 173.9504 360.2406 173.7114 356.6486" stroke="none" fill="#221E1F" fill-rule="nonzero"></path><path id="" transform="matrix(1 0 0 -1 0 841)" d="M226.0661 363.273L238.1161 363.273C 239.0741 357.607 239.3931 355.213 239.3931 353.138L239.3931 353.138L239.3131 351.302C 244.4201 351.70102 246.8151 351.78 249.05011 351.78C 252.6411 351.78 255.0351 351.462 257.5091 351.302C 255.5941 356.01102 255.0351 357.767 251.2041 374.04602L251.2041 374.04602L248.4911 385.379C 246.9741 392.082 246.0971 395.674 243.5421 408.12302C 241.0691 407.80502 238.6751 407.565 234.0461 407.565C 231.6521 407.565 229.7361 407.64502 228.22011 407.724C 226.6241 407.80502 225.3471 407.96402 223.9901 408.12302C 222.7931 400.781 220.5581 391.923 219.1221 385.93802L219.1221 385.93802L216.3291 375.243C 211.6201 356.969 210.4241 354.574 208.9071 351.302C 211.4611 351.621 212.6591 351.70102 215.2121 351.70102C 220.3201 351.70102 222.4741 351.462 224.3901 351.302C 224.2301 353.85602 224.5491 357.12802 226.0661 363.273M232.3701 395.674L236.2011 373.808L236.2011 373.808L227.90111 373.808z" stroke="none" fill="#221E1F" fill-rule="nonzero"></path><path id="" transform="matrix(1 0 0 -1 0 841)" d="M318.8018 408.0441C 316.08878 407.7241 314.09378 407.4841 309.8638 407.4841C 307.3108 407.4841 304.9958 407.5651 303.07977 407.7241C 301.1648 407.80508 299.6488 407.9641 298.5318 408.0441C 296.5368 397.9881 293.6638 388.0921 290.63177 378.2761C 287.43878 390.6461 287.11978 392.0031 286.0818 396.3131C 284.5658 403.2561 284.32578 403.9741 283.6088 408.0441C 280.89478 407.7241 278.42078 407.4841 273.5528 407.4841C 270.36078 407.4841 267.88678 407.5651 265.89178 407.7241C 263.9758 407.80508 262.5398 407.9641 261.2628 408.0441C 262.7798 405.2511 262.8588 404.2131 262.8588 395.6741L262.8588 395.6741L262.5398 385.4581C 261.98077 366.9441 261.6618 361.5171 260.78378 356.0901C 260.3848 353.6961 260.0658 352.81808 259.34778 351.3021C 261.7418 351.6211 263.7368 351.7801 267.4878 351.7801C 270.5998 351.7801 272.35577 351.7011 274.82977 351.3021C 274.27078 352.6591 274.0318 353.2971 273.8718 355.3721C 273.3928 361.2771 273.79178 368.2211 273.79178 375.2431L273.79178 375.2431L273.79178 378.4371C 273.8718 385.9381 273.8718 388.0131 274.1118 391.0451C 275.46878 385.2991 275.8668 383.7831 277.5428 378.2761L277.5428 378.2761L280.9748 365.7471C 283.7678 355.5311 284.0868 354.4151 284.5658 351.5411C 285.9228 351.6211 287.0398 351.7011 288.31677 351.7011C 289.6738 351.7011 290.9498 351.6211 292.22678 351.5411C 292.7858 355.2921 293.18478 356.5691 296.6168 368.0621L296.6168 368.0621L299.17078 376.0411C 301.9628 384.3421 302.76178 388.0131 303.4798 390.8061L303.4798 390.8061L303.55878 386.2571C 303.55878 376.0411 303.07977 360.3201 302.5218 355.61108C 302.28278 353.4571 302.0428 352.7381 301.4848 351.3021C 303.87878 351.5411 305.9538 351.7801 309.5448 351.7801C 314.1738 351.7801 316.4878 351.4621 319.36078 351.3021C 318.1638 354.0161 318.00378 357.6061 317.7648 360.9581C 317.60577 364.7891 317.5258 367.8211 317.36478 374.5251L317.36478 374.5251L317.20578 384.4211C 317.20578 389.84808 317.20578 391.3641 317.36478 397.5901C 317.4458 401.1811 317.5258 405.0911 318.8018 408.0441" stroke="none" fill="#221E1F" fill-rule="nonzero"></path><path id="" transform="matrix(1 0 0 -1 0 841)" d="M339.3955 360.879C 335.0065 360.879 330.45752 362.076 328.1435 365.747C 327.50452 359.442 326.7875 356.809 325.1105 352.899C 327.50452 352.18 332.45352 350.743 340.5925 350.743C 356.7135 350.743 362.06052 360.32 362.06052 369.418C 362.06052 378.437 357.3515 381.469 351.4465 384.74C 344.8225 388.57098 342.0295 390.168 342.0295 393.838C 342.0295 397.43 344.6635 399.106 348.4945 399.106C 352.4045 399.106 356.47452 397.988 358.7085 394.796C 358.94852 399.425 359.42752 402.138 361.2625 406.767C 359.0285 407.325 353.8405 408.603 346.7385 408.603C 342.0295 408.603 331.9735 408.123 327.9845 397.748C 327.1065 395.594 326.6265 393.12 326.6265 390.406C 326.6265 380.99 332.45352 377.718 338.1195 374.525C 342.98752 371.732 343.5455 371.413 344.10452 370.934C 345.5415 369.737 346.41852 368.301 346.41852 366.385C 346.41852 364.151 345.14252 360.879 339.3955 360.879" stroke="none" fill="#221E1F" fill-rule="nonzero"></path></g></g></g></svg> 